<svg xmlns="http://www.w3.org/2000/svg" xmlns:xlink="http://www.w3.org/1999/xlink" width="500" zoomAndPan="magnify" viewBox="0 0 375 374.999991" height="500" preserveAspectRatio="xMidYMid meet" version="1.2"><defs><clipPath id="707ff52b2f"><path d="M 203 124 L 364 124 L 364 273 L 203 273 Z M 203 124 "/></clipPath><clipPath id="12c7dcee3b"><path d="M 290.671875 56.148438 L 418.441406 175.367188 L 284.386719 319.035156 L 156.617188 199.820312 Z M 290.671875 56.148438 "/></clipPath><clipPath id="fbe66d4750"><path d="M 290.671875 56.148438 L 418.441406 175.367188 L 284.386719 319.035156 L 156.617188 199.820312 Z M 290.671875 56.148438 "/></clipPath><clipPath id="15c6829f7d"><path d="M 235.246094 265.605469 C 258.136719 282.289062 327.605469 263.582031 343.640625 248.917969 C 383.480469 212.503906 358.832031 119.78125 301.386719 125.214844 C 256.4375 129.488281 292.667969 171.460938 248.761719 171.140625 C 184.070312 170.679688 198.402344 238.765625 235.246094 265.605469 Z M 235.246094 265.605469 "/></clipPath></defs><g id="8d8dec0a78"><g clip-rule="nonzero" clip-path="url(#707ff52b2f)"><g clip-rule="nonzero" clip-path="url(#12c7dcee3b)"><g clip-rule="nonzero" clip-path="url(#fbe66d4750)"><g clip-rule="nonzero" clip-path="url(#15c6829f7d)"><path style=" stroke:none;fill-rule:nonzero;fill:#891436;fill-opacity:1;" d="M 286.136719 377.523438 L 103.011719 206.65625 L 272.933594 24.546875 L 456.058594 195.414062 Z M 286.136719 377.523438 "/></g></g></g></g><g style="fill:#ffffff;fill-opacity:1;"><g transform="translate(189.96924, 229.139147)"><path style="stroke:none" d=""/></g></g><g style="fill:#ffffff;fill-opacity:1;"><g transform="translate(203.682316, 229.139147)"><path style="stroke:none" d=""/></g></g><g style="fill:#fab701;fill-opacity:1;"><g transform="translate(217.407054, 229.139147)"><path style="stroke:none" d="M 1.84375 -1.078125 L 1.84375 -5.78125 C 1.84375 -6.375 2.101562 -6.796875 2.625 -7.046875 C 3.15625 -7.296875 4.269531 -7.421875 5.96875 -7.421875 C 7.707031 -7.421875 8.816406 -7.296875 9.296875 -7.046875 C 9.785156 -6.796875 10.03125 -6.375 10.03125 -5.78125 L 10.03125 -1.078125 C 10.03125 -0.523438 9.785156 -0.113281 9.296875 0.15625 C 8.816406 0.4375 7.707031 0.578125 5.96875 0.578125 C 4.269531 0.578125 3.15625 0.4375 2.625 0.15625 C 2.101562 -0.113281 1.84375 -0.523438 1.84375 -1.078125 Z M 1.84375 -1.078125 "/></g></g><g style="fill:#fab701;fill-opacity:1;"><g transform="translate(229.215536, 229.139147)"><path style="stroke:none" d="M 2.609375 -8.765625 L 2.609375 -27.484375 C 2.609375 -28.078125 2.835938 -28.5 3.296875 -28.75 C 3.765625 -29.007812 4.820312 -29.140625 6.46875 -29.140625 C 8.125 -29.140625 9.191406 -29.007812 9.671875 -28.75 C 10.160156 -28.5 10.40625 -28.078125 10.40625 -27.484375 L 10.40625 -9.328125 C 10.40625 -8.015625 10.722656 -7.0625 11.359375 -6.46875 C 11.992188 -5.882812 13.03125 -5.59375 14.46875 -5.59375 C 15.0625 -5.59375 15.613281 -5.664062 16.125 -5.8125 C 16.632812 -5.957031 17.097656 -6.113281 17.515625 -6.28125 L 17.578125 -27.484375 C 17.578125 -28.078125 17.8125 -28.5 18.28125 -28.75 C 18.75 -29.007812 19.804688 -29.140625 21.453125 -29.140625 C 23.109375 -29.140625 24.175781 -29.007812 24.65625 -28.75 C 25.144531 -28.5 25.390625 -28.078125 25.390625 -27.484375 L 25.390625 -4.765625 C 25.390625 -3.785156 25.007812 -3 24.25 -2.40625 C 23.570312 -1.863281 22.394531 -1.226562 20.71875 -0.5 C 19.050781 0.21875 16.820312 0.578125 14.03125 0.578125 C 10.21875 0.578125 7.359375 -0.148438 5.453125 -1.609375 C 3.554688 -3.078125 2.609375 -5.460938 2.609375 -8.765625 Z M 2.609375 -8.765625 "/></g></g><g style="fill:#fab701;fill-opacity:1;"><g transform="translate(257.213051, 229.139147)"><path style="stroke:none" d="M 12.640625 -29.140625 C 14.671875 -29.140625 16.476562 -28.945312 18.0625 -28.5625 C 19.644531 -28.1875 21.03125 -27.660156 22.21875 -26.984375 C 22.601562 -26.816406 22.796875 -26.519531 22.796875 -26.09375 C 22.796875 -25.625 22.519531 -24.84375 21.96875 -23.75 C 21.539062 -22.9375 21.1875 -22.359375 20.90625 -22.015625 C 20.632812 -21.679688 20.375 -21.515625 20.125 -21.515625 C 19.957031 -21.515625 19.765625 -21.582031 19.546875 -21.71875 C 18.660156 -22.175781 17.6875 -22.53125 16.625 -22.78125 C 15.570312 -23.039062 14.472656 -23.171875 13.328125 -23.171875 C 12.015625 -23.171875 11.0625 -22.914062 10.46875 -22.40625 C 9.882812 -21.894531 9.59375 -21.21875 9.59375 -20.375 C 9.59375 -18.769531 10.476562 -17.773438 12.25 -17.390625 L 16.4375 -16.765625 C 18.9375 -16.335938 20.753906 -15.425781 21.890625 -14.03125 C 23.035156 -12.632812 23.609375 -10.816406 23.609375 -8.578125 C 23.609375 -5.992188 22.816406 -3.820312 21.234375 -2.0625 C 19.648438 -0.300781 17.054688 0.578125 13.453125 0.578125 C 10.703125 0.578125 8.457031 0.363281 6.71875 -0.0625 C 4.988281 -0.488281 3.300781 -1.125 1.65625 -1.96875 C 1.226562 -2.175781 1.015625 -2.492188 1.015625 -2.921875 C 1.015625 -3.347656 1.289062 -4.109375 1.84375 -5.203125 C 2.257812 -6.046875 2.613281 -6.625 2.90625 -6.9375 C 3.207031 -7.257812 3.488281 -7.421875 3.75 -7.421875 C 3.957031 -7.421875 4.144531 -7.359375 4.3125 -7.234375 C 5.5 -6.640625 6.660156 -6.179688 7.796875 -5.859375 C 8.941406 -5.546875 10.300781 -5.390625 11.875 -5.390625 C 13.351562 -5.390625 14.378906 -5.664062 14.953125 -6.21875 C 15.523438 -6.769531 15.8125 -7.445312 15.8125 -8.25 C 15.8125 -8.96875 15.609375 -9.582031 15.203125 -10.09375 C 14.796875 -10.601562 14.109375 -10.941406 13.140625 -11.109375 L 9.140625 -11.75 C 6.554688 -12.164062 4.679688 -13.082031 3.515625 -14.5 C 2.359375 -15.925781 1.78125 -17.800781 1.78125 -20.125 C 1.78125 -22.75 2.613281 -24.90625 4.28125 -26.59375 C 5.957031 -28.289062 8.742188 -29.140625 12.640625 -29.140625 Z M 12.640625 -29.140625 "/></g></g><g style="fill:#fab701;fill-opacity:1;"><g transform="translate(282.607624, 229.139147)"><path style="stroke:none" d="M 1.84375 -1.078125 L 1.84375 -5.78125 C 1.84375 -6.375 2.101562 -6.796875 2.625 -7.046875 C 3.15625 -7.296875 4.269531 -7.421875 5.96875 -7.421875 C 7.707031 -7.421875 8.816406 -7.296875 9.296875 -7.046875 C 9.785156 -6.796875 10.03125 -6.375 10.03125 -5.78125 L 10.03125 -1.078125 C 10.03125 -0.523438 9.785156 -0.113281 9.296875 0.15625 C 8.816406 0.4375 7.707031 0.578125 5.96875 0.578125 C 4.269531 0.578125 3.15625 0.4375 2.625 0.15625 C 2.101562 -0.113281 1.84375 -0.523438 1.84375 -1.078125 Z M 1.84375 -1.078125 "/></g></g><g style="fill:#fab701;fill-opacity:1;"><g transform="translate(294.416105, 229.139147)"><path style="stroke:none" d="M 13.78125 -29.140625 C 17.882812 -29.140625 20.78125 -27.898438 22.46875 -25.421875 C 24.164062 -22.953125 25.015625 -19.410156 25.015625 -14.796875 C 25.015625 -12.460938 23.867188 -11.296875 21.578125 -11.296875 L 9.78125 -11.296875 C 10.113281 -9.140625 10.804688 -7.613281 11.859375 -6.71875 C 12.921875 -5.832031 14.320312 -5.390625 16.0625 -5.390625 C 17.070312 -5.390625 17.925781 -5.515625 18.625 -5.765625 C 19.332031 -6.023438 20.023438 -6.328125 20.703125 -6.671875 C 20.910156 -6.796875 21.097656 -6.859375 21.265625 -6.859375 C 21.515625 -6.859375 21.785156 -6.695312 22.078125 -6.375 C 22.378906 -6.0625 22.742188 -5.484375 23.171875 -4.640625 C 23.460938 -4.085938 23.660156 -3.628906 23.765625 -3.265625 C 23.878906 -2.910156 23.9375 -2.601562 23.9375 -2.34375 C 23.9375 -1.925781 23.742188 -1.609375 23.359375 -1.390625 C 22.171875 -0.753906 20.953125 -0.269531 19.703125 0.0625 C 18.460938 0.40625 16.785156 0.578125 14.671875 0.578125 C 10.222656 0.578125 6.972656 -0.671875 4.921875 -3.171875 C 2.867188 -5.671875 1.84375 -9.375 1.84375 -14.28125 C 1.84375 -19.1875 2.816406 -22.890625 4.765625 -25.390625 C 6.710938 -27.890625 9.71875 -29.140625 13.78125 -29.140625 Z M 17.96875 -17.015625 C 17.800781 -19.335938 17.421875 -20.941406 16.828125 -21.828125 C 16.234375 -22.722656 15.28125 -23.171875 13.96875 -23.171875 C 12.65625 -23.171875 11.648438 -22.710938 10.953125 -21.796875 C 10.253906 -20.890625 9.820312 -19.296875 9.65625 -17.015625 Z M 17.96875 -17.015625 "/></g></g><g style="fill:#fab701;fill-opacity:1;"><g transform="translate(321.143896, 229.139147)"><path style="stroke:none" d="M 12.640625 -29.140625 C 14.671875 -29.140625 16.476562 -28.945312 18.0625 -28.5625 C 19.644531 -28.1875 21.03125 -27.660156 22.21875 -26.984375 C 22.601562 -26.816406 22.796875 -26.519531 22.796875 -26.09375 C 22.796875 -25.625 22.519531 -24.84375 21.96875 -23.75 C 21.539062 -22.9375 21.1875 -22.359375 20.90625 -22.015625 C 20.632812 -21.679688 20.375 -21.515625 20.125 -21.515625 C 19.957031 -21.515625 19.765625 -21.582031 19.546875 -21.71875 C 18.660156 -22.175781 17.6875 -22.53125 16.625 -22.78125 C 15.570312 -23.039062 14.472656 -23.171875 13.328125 -23.171875 C 12.015625 -23.171875 11.0625 -22.914062 10.46875 -22.40625 C 9.882812 -21.894531 9.59375 -21.21875 9.59375 -20.375 C 9.59375 -18.769531 10.476562 -17.773438 12.25 -17.390625 L 16.4375 -16.765625 C 18.9375 -16.335938 20.753906 -15.425781 21.890625 -14.03125 C 23.035156 -12.632812 23.609375 -10.816406 23.609375 -8.578125 C 23.609375 -5.992188 22.816406 -3.820312 21.234375 -2.0625 C 19.648438 -0.300781 17.054688 0.578125 13.453125 0.578125 C 10.703125 0.578125 8.457031 0.363281 6.71875 -0.0625 C 4.988281 -0.488281 3.300781 -1.125 1.65625 -1.96875 C 1.226562 -2.175781 1.015625 -2.492188 1.015625 -2.921875 C 1.015625 -3.347656 1.289062 -4.109375 1.84375 -5.203125 C 2.257812 -6.046875 2.613281 -6.625 2.90625 -6.9375 C 3.207031 -7.257812 3.488281 -7.421875 3.75 -7.421875 C 3.957031 -7.421875 4.144531 -7.359375 4.3125 -7.234375 C 5.5 -6.640625 6.660156 -6.179688 7.796875 -5.859375 C 8.941406 -5.546875 10.300781 -5.390625 11.875 -5.390625 C 13.351562 -5.390625 14.378906 -5.664062 14.953125 -6.21875 C 15.523438 -6.769531 15.8125 -7.445312 15.8125 -8.25 C 15.8125 -8.96875 15.609375 -9.582031 15.203125 -10.09375 C 14.796875 -10.601562 14.109375 -10.941406 13.140625 -11.109375 L 9.140625 -11.75 C 6.554688 -12.164062 4.679688 -13.082031 3.515625 -14.5 C 2.359375 -15.925781 1.78125 -17.800781 1.78125 -20.125 C 1.78125 -22.75 2.613281 -24.90625 4.28125 -26.59375 C 5.957031 -28.289062 8.742188 -29.140625 12.640625 -29.140625 Z M 12.640625 -29.140625 "/></g></g><g style="fill:#545454;fill-opacity:1;"><g transform="translate(4.335281, 229.139147)"><path style="stroke:none" d="M 13.203125 -29.140625 C 16.929688 -29.140625 19.578125 -27.910156 21.140625 -25.453125 C 22.703125 -23.003906 23.484375 -19.363281 23.484375 -14.53125 C 23.484375 -13.132812 22.804688 -12.4375 21.453125 -12.4375 L 6.921875 -12.4375 C 7.128906 -9.09375 7.878906 -6.691406 9.171875 -5.234375 C 10.460938 -3.773438 12.316406 -3.046875 14.734375 -3.046875 C 15.953125 -3.046875 16.992188 -3.234375 17.859375 -3.609375 C 18.734375 -3.992188 19.550781 -4.460938 20.3125 -5.015625 C 20.4375 -5.140625 20.585938 -5.203125 20.765625 -5.203125 C 21.140625 -5.203125 21.5625 -4.820312 22.03125 -4.0625 C 22.40625 -3.425781 22.59375 -3.003906 22.59375 -2.796875 C 22.59375 -2.578125 22.445312 -2.320312 22.15625 -2.03125 C 21.132812 -1.226562 20.03125 -0.59375 18.84375 -0.125 C 17.664062 0.34375 16.082031 0.578125 14.09375 0.578125 C 6.300781 0.578125 2.40625 -4.375 2.40625 -14.28125 C 2.40625 -19.320312 3.285156 -23.054688 5.046875 -25.484375 C 6.804688 -27.921875 9.523438 -29.140625 13.203125 -29.140625 Z M 19.421875 -16 C 19.296875 -19.46875 18.773438 -21.921875 17.859375 -23.359375 C 16.953125 -24.796875 15.441406 -25.515625 13.328125 -25.515625 C 11.210938 -25.515625 9.644531 -24.773438 8.625 -23.296875 C 7.613281 -21.816406 7.046875 -19.382812 6.921875 -16 Z M 19.421875 -16 "/></g></g><g style="fill:#545454;fill-opacity:1;"><g transform="translate(30.110766, 229.139147)"><path style="stroke:none" d="M 2.734375 -29.140625 C 3.617188 -29.140625 4.21875 -29.039062 4.53125 -28.84375 C 4.851562 -28.65625 5.054688 -28.332031 5.140625 -27.875 L 11.8125 -3.171875 L 18.53125 -27.875 C 18.625 -28.332031 18.828125 -28.65625 19.140625 -28.84375 C 19.453125 -29.039062 20.054688 -29.140625 20.953125 -29.140625 C 21.796875 -29.140625 22.363281 -29.050781 22.65625 -28.875 C 22.957031 -28.707031 23.109375 -28.476562 23.109375 -28.1875 C 23.109375 -28.144531 23.097656 -28.113281 23.078125 -28.09375 C 23.054688 -28.070312 23.046875 -28.019531 23.046875 -27.9375 L 15.296875 -0.828125 C 15.171875 -0.273438 14.863281 0.09375 14.375 0.28125 C 13.894531 0.476562 13.039062 0.578125 11.8125 0.578125 C 10.625 0.578125 9.785156 0.476562 9.296875 0.28125 C 8.816406 0.09375 8.507812 -0.273438 8.375 -0.828125 L 0.640625 -27.9375 C 0.640625 -28.019531 0.628906 -28.070312 0.609375 -28.09375 C 0.585938 -28.113281 0.578125 -28.144531 0.578125 -28.1875 C 0.578125 -28.476562 0.734375 -28.707031 1.046875 -28.875 C 1.367188 -29.050781 1.929688 -29.140625 2.734375 -29.140625 Z M 2.734375 -29.140625 "/></g></g><g style="fill:#545454;fill-opacity:1;"><g transform="translate(53.727715, 229.139147)"><path style="stroke:none" d="M 5.203125 -43.046875 C 6.390625 -43.046875 7.148438 -42.957031 7.484375 -42.78125 C 7.828125 -42.613281 8 -42.320312 8 -41.90625 L 8 -38.921875 C 8 -38.492188 7.828125 -38.191406 7.484375 -38.015625 C 7.148438 -37.847656 6.390625 -37.765625 5.203125 -37.765625 C 4.015625 -37.765625 3.257812 -37.847656 2.9375 -38.015625 C 2.625 -38.191406 2.46875 -38.492188 2.46875 -38.921875 L 2.46875 -41.90625 C 2.46875 -42.320312 2.625 -42.613281 2.9375 -42.78125 C 3.257812 -42.957031 4.015625 -43.046875 5.203125 -43.046875 Z M 5.203125 -29.140625 C 6.179688 -29.140625 6.796875 -29.050781 7.046875 -28.875 C 7.296875 -28.707031 7.421875 -28.4375 7.421875 -28.0625 L 7.421875 -0.515625 C 7.421875 -0.128906 7.296875 0.144531 7.046875 0.3125 C 6.796875 0.488281 6.179688 0.578125 5.203125 0.578125 C 4.273438 0.578125 3.671875 0.488281 3.390625 0.3125 C 3.117188 0.144531 2.984375 -0.128906 2.984375 -0.515625 L 2.984375 -28.0625 C 2.984375 -28.4375 3.117188 -28.707031 3.390625 -28.875 C 3.671875 -29.050781 4.273438 -29.140625 5.203125 -29.140625 Z M 5.203125 -29.140625 "/></g></g><g style="fill:#545454;fill-opacity:1;"><g transform="translate(64.076008, 229.139147)"><path style="stroke:none" d="M 2.40625 -14.28125 C 2.40625 -19.695312 3.378906 -23.523438 5.328125 -25.765625 C 7.273438 -28.015625 9.921875 -29.140625 13.265625 -29.140625 C 14.617188 -29.140625 15.800781 -28.988281 16.8125 -28.6875 C 17.832031 -28.394531 18.722656 -28.035156 19.484375 -27.609375 L 19.484375 -42.34375 C 19.484375 -42.726562 19.617188 -43.003906 19.890625 -43.171875 C 20.171875 -43.335938 20.78125 -43.421875 21.71875 -43.421875 C 22.6875 -43.421875 23.296875 -43.335938 23.546875 -43.171875 C 23.804688 -43.003906 23.9375 -42.726562 23.9375 -42.34375 L 23.9375 -3.75 C 23.9375 -3.238281 23.742188 -2.8125 23.359375 -2.46875 C 23.066406 -2.21875 22.535156 -1.847656 21.765625 -1.359375 C 21.003906 -0.878906 20 -0.4375 18.75 -0.03125 C 17.507812 0.375 15.976562 0.578125 14.15625 0.578125 C 11.875 0.578125 9.851562 0.09375 8.09375 -0.875 C 6.332031 -1.851562 4.941406 -3.429688 3.921875 -5.609375 C 2.910156 -7.796875 2.40625 -10.6875 2.40625 -14.28125 Z M 19.484375 -4.640625 L 19.484375 -23.359375 C 18.890625 -23.867188 18.128906 -24.34375 17.203125 -24.78125 C 16.273438 -25.226562 15.175781 -25.453125 13.90625 -25.453125 C 11.707031 -25.453125 9.984375 -24.644531 8.734375 -23.03125 C 7.484375 -21.425781 6.859375 -18.507812 6.859375 -14.28125 C 6.859375 -10.050781 7.503906 -7.128906 8.796875 -5.515625 C 10.085938 -3.910156 11.851562 -3.109375 14.09375 -3.109375 C 15.28125 -3.109375 16.328125 -3.265625 17.234375 -3.578125 C 18.140625 -3.898438 18.890625 -4.253906 19.484375 -4.640625 Z M 19.484375 -4.640625 "/></g></g><g style="fill:#545454;fill-opacity:1;"><g transform="translate(91.502147, 229.139147)"><path style="stroke:none" d="M 13.203125 -29.140625 C 16.929688 -29.140625 19.578125 -27.910156 21.140625 -25.453125 C 22.703125 -23.003906 23.484375 -19.363281 23.484375 -14.53125 C 23.484375 -13.132812 22.804688 -12.4375 21.453125 -12.4375 L 6.921875 -12.4375 C 7.128906 -9.09375 7.878906 -6.691406 9.171875 -5.234375 C 10.460938 -3.773438 12.316406 -3.046875 14.734375 -3.046875 C 15.953125 -3.046875 16.992188 -3.234375 17.859375 -3.609375 C 18.734375 -3.992188 19.550781 -4.460938 20.3125 -5.015625 C 20.4375 -5.140625 20.585938 -5.203125 20.765625 -5.203125 C 21.140625 -5.203125 21.5625 -4.820312 22.03125 -4.0625 C 22.40625 -3.425781 22.59375 -3.003906 22.59375 -2.796875 C 22.59375 -2.578125 22.445312 -2.320312 22.15625 -2.03125 C 21.132812 -1.226562 20.03125 -0.59375 18.84375 -0.125 C 17.664062 0.34375 16.082031 0.578125 14.09375 0.578125 C 6.300781 0.578125 2.40625 -4.375 2.40625 -14.28125 C 2.40625 -19.320312 3.285156 -23.054688 5.046875 -25.484375 C 6.804688 -27.921875 9.523438 -29.140625 13.203125 -29.140625 Z M 19.421875 -16 C 19.296875 -19.46875 18.773438 -21.921875 17.859375 -23.359375 C 16.953125 -24.796875 15.441406 -25.515625 13.328125 -25.515625 C 11.210938 -25.515625 9.644531 -24.773438 8.625 -23.296875 C 7.613281 -21.816406 7.046875 -19.382812 6.921875 -16 Z M 19.421875 -16 "/></g></g><g style="fill:#545454;fill-opacity:1;"><g transform="translate(117.277632, 229.139147)"><path style="stroke:none" d="M 3.484375 -0.515625 L 3.484375 -24.5 C 3.484375 -25.09375 3.71875 -25.5625 4.1875 -25.90625 C 4.570312 -26.195312 5.164062 -26.597656 5.96875 -27.109375 C 6.769531 -27.617188 7.816406 -28.082031 9.109375 -28.5 C 10.398438 -28.925781 11.9375 -29.140625 13.71875 -29.140625 C 20.613281 -29.140625 24.0625 -26.300781 24.0625 -20.625 L 24.0625 -0.515625 C 24.0625 -0.128906 23.929688 0.144531 23.671875 0.3125 C 23.421875 0.488281 22.8125 0.578125 21.84375 0.578125 C 20.90625 0.578125 20.296875 0.488281 20.015625 0.3125 C 19.742188 0.144531 19.609375 -0.128906 19.609375 -0.515625 L 19.609375 -20.3125 C 19.609375 -22.050781 19.125 -23.34375 18.15625 -24.1875 C 17.1875 -25.03125 15.640625 -25.453125 13.515625 -25.453125 C 12.335938 -25.453125 11.28125 -25.28125 10.34375 -24.9375 C 9.414062 -24.601562 8.632812 -24.25 8 -23.875 L 8 -0.515625 C 8 -0.128906 7.859375 0.144531 7.578125 0.3125 C 7.304688 0.488281 6.6875 0.578125 5.71875 0.578125 C 4.78125 0.578125 4.171875 0.488281 3.890625 0.3125 C 3.617188 0.144531 3.484375 -0.128906 3.484375 -0.515625 Z M 3.484375 -0.515625 "/></g></g><g style="fill:#545454;fill-opacity:1;"><g transform="translate(144.830742, 229.139147)"><path style="stroke:none" d="M 6.859375 -37.703125 C 7.828125 -37.703125 8.445312 -37.617188 8.71875 -37.453125 C 9 -37.285156 9.140625 -37.007812 9.140625 -36.625 L 9.140625 -28.5625 L 14.734375 -28.5625 C 15.066406 -28.5625 15.304688 -28.445312 15.453125 -28.21875 C 15.609375 -27.988281 15.6875 -27.492188 15.6875 -26.734375 C 15.6875 -25.960938 15.609375 -25.460938 15.453125 -25.234375 C 15.304688 -25.003906 15.066406 -24.890625 14.734375 -24.890625 L 9.140625 -24.890625 L 9.140625 -7.625 C 9.140625 -6.007812 9.488281 -4.84375 10.1875 -4.125 C 10.882812 -3.40625 11.890625 -3.046875 13.203125 -3.046875 C 14.046875 -3.046875 14.765625 -3.191406 15.359375 -3.484375 C 15.953125 -3.785156 16.523438 -4.148438 17.078125 -4.578125 C 17.242188 -4.660156 17.390625 -4.703125 17.515625 -4.703125 C 17.816406 -4.703125 18.175781 -4.320312 18.59375 -3.5625 C 18.894531 -3.007812 19.046875 -2.582031 19.046875 -2.28125 C 19.046875 -2.03125 18.851562 -1.734375 18.46875 -1.390625 C 17.789062 -0.753906 16.988281 -0.269531 16.0625 0.0625 C 15.132812 0.40625 14.015625 0.578125 12.703125 0.578125 C 9.992188 0.578125 7.972656 -0.140625 6.640625 -1.578125 C 5.304688 -3.023438 4.640625 -5.0625 4.640625 -7.6875 L 4.640625 -24.890625 L 1.53125 -24.890625 C 1.226562 -24.890625 0.992188 -25.003906 0.828125 -25.234375 C 0.660156 -25.460938 0.578125 -25.960938 0.578125 -26.734375 C 0.578125 -27.492188 0.660156 -27.988281 0.828125 -28.21875 C 0.992188 -28.445312 1.226562 -28.5625 1.53125 -28.5625 L 4.640625 -28.5625 L 4.640625 -36.625 C 4.640625 -37.007812 4.773438 -37.285156 5.046875 -37.453125 C 5.316406 -37.617188 5.921875 -37.703125 6.859375 -37.703125 Z M 6.859375 -37.703125 "/></g></g><g style="fill:#545454;fill-opacity:1;"><g transform="translate(164.130617, 229.139147)"><path style="stroke:none" d="M 5.203125 -43.046875 C 6.390625 -43.046875 7.148438 -42.957031 7.484375 -42.78125 C 7.828125 -42.613281 8 -42.320312 8 -41.90625 L 8 -38.921875 C 8 -38.492188 7.828125 -38.191406 7.484375 -38.015625 C 7.148438 -37.847656 6.390625 -37.765625 5.203125 -37.765625 C 4.015625 -37.765625 3.257812 -37.847656 2.9375 -38.015625 C 2.625 -38.191406 2.46875 -38.492188 2.46875 -38.921875 L 2.46875 -41.90625 C 2.46875 -42.320312 2.625 -42.613281 2.9375 -42.78125 C 3.257812 -42.957031 4.015625 -43.046875 5.203125 -43.046875 Z M 5.203125 -29.140625 C 6.179688 -29.140625 6.796875 -29.050781 7.046875 -28.875 C 7.296875 -28.707031 7.421875 -28.4375 7.421875 -28.0625 L 7.421875 -0.515625 C 7.421875 -0.128906 7.296875 0.144531 7.046875 0.3125 C 6.796875 0.488281 6.179688 0.578125 5.203125 0.578125 C 4.273438 0.578125 3.671875 0.488281 3.390625 0.3125 C 3.117188 0.144531 2.984375 -0.128906 2.984375 -0.515625 L 2.984375 -28.0625 C 2.984375 -28.4375 3.117188 -28.707031 3.390625 -28.875 C 3.671875 -29.050781 4.273438 -29.140625 5.203125 -29.140625 Z M 5.203125 -29.140625 "/></g></g><g style="fill:#545454;fill-opacity:1;"><g transform="translate(174.47891, 229.139147)"><path style="stroke:none" d="M 13.140625 -29.140625 C 19.660156 -29.140625 22.921875 -26.410156 22.921875 -20.953125 L 22.921875 -0.515625 C 22.921875 -0.128906 22.820312 0.144531 22.625 0.3125 C 22.4375 0.488281 22.003906 0.578125 21.328125 0.578125 C 20.140625 0.578125 19.460938 0.171875 19.296875 -0.640625 L 18.921875 -3.109375 C 18.160156 -2.179688 17.125 -1.332031 15.8125 -0.5625 C 14.5 0.195312 12.785156 0.578125 10.671875 0.578125 C 8.085938 0.578125 6.0625 -0.171875 4.59375 -1.671875 C 3.132812 -3.179688 2.40625 -5.375 2.40625 -8.25 C 2.40625 -11.039062 3.21875 -13.257812 4.84375 -14.90625 C 6.476562 -16.5625 9.078125 -17.390625 12.640625 -17.390625 C 13.859375 -17.390625 14.953125 -17.296875 15.921875 -17.109375 C 16.898438 -16.921875 17.75 -16.695312 18.46875 -16.4375 L 18.46875 -20.5625 C 18.46875 -23.863281 16.457031 -25.515625 12.4375 -25.515625 C 11.257812 -25.515625 10.171875 -25.320312 9.171875 -24.9375 C 8.179688 -24.5625 7.238281 -24.035156 6.34375 -23.359375 C 6.175781 -23.234375 6.007812 -23.171875 5.84375 -23.171875 C 5.457031 -23.171875 5.078125 -23.53125 4.703125 -24.25 C 4.359375 -24.800781 4.1875 -25.242188 4.1875 -25.578125 C 4.1875 -25.878906 4.316406 -26.113281 4.578125 -26.28125 C 5.710938 -27.207031 6.945312 -27.914062 8.28125 -28.40625 C 9.613281 -28.894531 11.234375 -29.140625 13.140625 -29.140625 Z M 18.46875 -6.28125 L 18.46875 -12.953125 C 17.832031 -13.203125 17.0625 -13.429688 16.15625 -13.640625 C 15.25 -13.859375 14.179688 -13.96875 12.953125 -13.96875 C 10.878906 -13.96875 9.34375 -13.5 8.34375 -12.5625 C 7.351562 -11.632812 6.859375 -10.304688 6.859375 -8.578125 C 6.859375 -6.671875 7.320312 -5.269531 8.25 -4.375 C 9.1875 -3.488281 10.476562 -3.046875 12.125 -3.046875 C 13.726562 -3.046875 15.050781 -3.40625 16.09375 -4.125 C 17.132812 -4.84375 17.925781 -5.5625 18.46875 -6.28125 Z M 18.46875 -6.28125 "/></g></g></g></svg>