<svg xmlns="http://www.w3.org/2000/svg" xmlns:xlink="http://www.w3.org/1999/xlink" width="1665" zoomAndPan="magnify" viewBox="0 0 1248.75 547.499989" height="730" preserveAspectRatio="xMidYMid meet" version="1.2"><defs><clipPath id="a1430d9f27"><path d="M 693 19 L 1243 19 L 1243 527 L 693 527 Z M 693 19 "/></clipPath><clipPath id="e656d9ebd0"><path d="M 1005.367188 -88.90625 L 1372.984375 254.105469 L 974.25 681.4375 L 606.636719 338.425781 Z M 1005.367188 -88.90625 "/></clipPath><clipPath id="ba05eb5ef8"><path d="M 992.851562 -218.125 L 1432.785156 192.363281 L 970.664062 687.632812 L 530.730469 277.140625 Z M 992.851562 -218.125 "/></clipPath><clipPath id="14995cb155"><path d="M 801.847656 503.695312 C 880.730469 561.195312 1120.128906 496.722656 1175.390625 446.1875 C 1312.6875 320.707031 1227.75 1.164062 1029.773438 19.894531 C 874.878906 34.621094 999.726562 179.265625 848.417969 178.152344 C 625.488281 176.566406 674.875 411.203125 801.847656 503.695312 Z M 801.847656 503.695312 "/></clipPath></defs><g id="b6fbd9a56a"><g clip-rule="nonzero" clip-path="url(#a1430d9f27)"><g clip-rule="nonzero" clip-path="url(#e656d9ebd0)"><g clip-rule="nonzero" clip-path="url(#ba05eb5ef8)"><g clip-rule="nonzero" clip-path="url(#14995cb155)"><path style=" stroke:none;fill-rule:nonzero;fill:#891436;fill-opacity:1;" d="M 958.300781 857.539062 L 353.222656 292.957031 L 915.242188 -309.371094 L 1520.320312 255.207031 Z M 958.300781 857.539062 "/></g></g></g></g><g style="fill:#ffffff;fill-opacity:1;"><g transform="translate(645.622597, 378.34995)"><path style="stroke:none" d=""/></g></g><g style="fill:#ffffff;fill-opacity:1;"><g transform="translate(692.905065, 378.34995)"><path style="stroke:none" d=""/></g></g><g style="fill:#fab701;fill-opacity:1;"><g transform="translate(740.227742, 378.34995)"><path style="stroke:none" d="M 6.34375 -3.71875 L 6.34375 -19.921875 C 6.34375 -21.960938 7.253906 -23.421875 9.078125 -24.296875 C 10.910156 -25.171875 14.742188 -25.609375 20.578125 -25.609375 C 26.554688 -25.609375 30.382812 -25.171875 32.0625 -24.296875 C 33.75 -23.421875 34.59375 -21.960938 34.59375 -19.921875 L 34.59375 -3.71875 C 34.59375 -1.820312 33.75 -0.398438 32.0625 0.546875 C 30.382812 1.492188 26.554688 1.96875 20.578125 1.96875 C 14.742188 1.96875 10.910156 1.492188 9.078125 0.546875 C 7.253906 -0.398438 6.34375 -1.820312 6.34375 -3.71875 Z M 6.34375 -3.71875 "/></g></g><g style="fill:#fab701;fill-opacity:1;"><g transform="translate(780.943198, 378.34995)"><path style="stroke:none" d="M 8.96875 -30.21875 L 8.96875 -94.796875 C 8.96875 -96.835938 9.769531 -98.296875 11.375 -99.171875 C 12.988281 -100.046875 16.640625 -100.484375 22.328125 -100.484375 C 28.023438 -100.484375 31.710938 -100.046875 33.390625 -99.171875 C 35.066406 -98.296875 35.90625 -96.835938 35.90625 -94.796875 L 35.90625 -32.1875 C 35.90625 -27.65625 37 -24.367188 39.1875 -22.328125 C 41.375 -20.285156 44.953125 -19.265625 49.921875 -19.265625 C 51.960938 -19.265625 53.859375 -19.519531 55.609375 -20.03125 C 57.359375 -20.539062 58.960938 -21.085938 60.421875 -21.671875 L 60.640625 -94.796875 C 60.640625 -96.835938 61.441406 -98.296875 63.046875 -99.171875 C 64.648438 -100.046875 68.300781 -100.484375 74 -100.484375 C 79.6875 -100.484375 83.367188 -100.046875 85.046875 -99.171875 C 86.722656 -98.296875 87.5625 -96.835938 87.5625 -94.796875 L 87.5625 -16.421875 C 87.5625 -13.066406 86.25 -10.363281 83.625 -8.3125 C 81.289062 -6.414062 77.238281 -4.226562 71.46875 -1.75 C 65.707031 0.726562 58.007812 1.96875 48.375 1.96875 C 35.238281 1.96875 25.382812 -0.546875 18.8125 -5.578125 C 12.25 -10.617188 8.96875 -18.832031 8.96875 -30.21875 Z M 8.96875 -30.21875 "/></g></g><g style="fill:#fab701;fill-opacity:1;"><g transform="translate(877.478182, 378.34995)"><path style="stroke:none" d="M 43.5625 -100.484375 C 50.570312 -100.484375 56.8125 -99.828125 62.28125 -98.515625 C 67.757812 -97.203125 72.539062 -95.378906 76.625 -93.046875 C 77.9375 -92.460938 78.59375 -91.441406 78.59375 -89.984375 C 78.59375 -88.367188 77.644531 -85.664062 75.75 -81.875 C 74.289062 -79.101562 73.085938 -77.132812 72.140625 -75.96875 C 71.191406 -74.800781 70.273438 -74.21875 69.390625 -74.21875 C 68.804688 -74.21875 68.148438 -74.4375 67.421875 -74.875 C 64.359375 -76.476562 61.003906 -77.71875 57.359375 -78.59375 C 53.710938 -79.46875 49.914062 -79.90625 45.96875 -79.90625 C 41.445312 -79.90625 38.164062 -79.03125 36.125 -77.28125 C 34.082031 -75.53125 33.0625 -73.195312 33.0625 -70.28125 C 33.0625 -64.726562 36.125 -61.296875 42.25 -59.984375 L 56.703125 -57.796875 C 65.304688 -56.335938 71.578125 -53.195312 75.515625 -48.375 C 79.460938 -43.5625 81.4375 -37.285156 81.4375 -29.546875 C 81.4375 -20.648438 78.695312 -13.171875 73.21875 -7.109375 C 67.75 -1.054688 58.8125 1.96875 46.40625 1.96875 C 36.925781 1.96875 29.191406 1.238281 23.203125 -0.21875 C 17.222656 -1.675781 11.382812 -3.863281 5.6875 -6.78125 C 4.226562 -7.507812 3.5 -8.609375 3.5 -10.078125 C 3.5 -11.535156 4.445312 -14.160156 6.34375 -17.953125 C 7.800781 -20.867188 9.039062 -22.875 10.0625 -23.96875 C 11.09375 -25.0625 12.046875 -25.609375 12.921875 -25.609375 C 13.648438 -25.609375 14.304688 -25.390625 14.890625 -24.953125 C 18.972656 -22.910156 22.984375 -21.34375 26.921875 -20.25 C 30.867188 -19.15625 35.539062 -18.609375 40.9375 -18.609375 C 46.039062 -18.609375 49.578125 -19.554688 51.546875 -21.453125 C 53.523438 -23.347656 54.515625 -25.679688 54.515625 -28.453125 C 54.515625 -30.941406 53.820312 -33.0625 52.4375 -34.8125 C 51.050781 -36.5625 48.675781 -37.726562 45.3125 -38.3125 L 31.53125 -40.5 C 22.625 -41.957031 16.160156 -45.128906 12.140625 -50.015625 C 8.128906 -54.910156 6.125 -61.367188 6.125 -69.390625 C 6.125 -78.441406 9.003906 -85.882812 14.765625 -91.71875 C 20.535156 -97.5625 30.132812 -100.484375 43.5625 -100.484375 Z M 43.5625 -100.484375 "/></g></g><g style="fill:#fab701;fill-opacity:1;"><g transform="translate(965.03826, 378.34995)"><path style="stroke:none" d="M 6.34375 -3.71875 L 6.34375 -19.921875 C 6.34375 -21.960938 7.253906 -23.421875 9.078125 -24.296875 C 10.910156 -25.171875 14.742188 -25.609375 20.578125 -25.609375 C 26.554688 -25.609375 30.382812 -25.171875 32.0625 -24.296875 C 33.75 -23.421875 34.59375 -21.960938 34.59375 -19.921875 L 34.59375 -3.71875 C 34.59375 -1.820312 33.75 -0.398438 32.0625 0.546875 C 30.382812 1.492188 26.554688 1.96875 20.578125 1.96875 C 14.742188 1.96875 10.910156 1.492188 9.078125 0.546875 C 7.253906 -0.398438 6.34375 -1.820312 6.34375 -3.71875 Z M 6.34375 -3.71875 "/></g></g><g style="fill:#fab701;fill-opacity:1;"><g transform="translate(1005.753716, 378.34995)"><path style="stroke:none" d="M 47.5 -100.484375 C 61.65625 -100.484375 71.648438 -96.210938 77.484375 -87.671875 C 83.328125 -79.140625 86.25 -66.921875 86.25 -51.015625 C 86.25 -42.984375 82.3125 -38.96875 74.4375 -38.96875 L 33.71875 -38.96875 C 34.882812 -31.519531 37.289062 -26.265625 40.9375 -23.203125 C 44.582031 -20.140625 49.398438 -18.609375 55.390625 -18.609375 C 58.890625 -18.609375 61.84375 -19.046875 64.25 -19.921875 C 66.65625 -20.796875 69.03125 -21.816406 71.375 -22.984375 C 72.101562 -23.421875 72.757812 -23.640625 73.34375 -23.640625 C 74.21875 -23.640625 75.164062 -23.09375 76.1875 -22 C 77.207031 -20.90625 78.445312 -18.898438 79.90625 -15.984375 C 80.925781 -14.085938 81.617188 -12.515625 81.984375 -11.265625 C 82.347656 -10.023438 82.53125 -8.96875 82.53125 -8.09375 C 82.53125 -6.632812 81.875 -5.539062 80.5625 -4.8125 C 76.476562 -2.625 72.28125 -0.945312 67.96875 0.21875 C 63.664062 1.382812 57.867188 1.96875 50.578125 1.96875 C 35.242188 1.96875 24.035156 -2.332031 16.953125 -10.9375 C 9.878906 -19.550781 6.34375 -32.320312 6.34375 -49.25 C 6.34375 -66.1875 9.695312 -78.957031 16.40625 -87.5625 C 23.125 -96.175781 33.488281 -100.484375 47.5 -100.484375 Z M 61.953125 -58.671875 C 61.367188 -66.703125 60.054688 -72.25 58.015625 -75.3125 C 55.972656 -78.375 52.6875 -79.90625 48.15625 -79.90625 C 43.632812 -79.90625 40.171875 -78.335938 37.765625 -75.203125 C 35.359375 -72.066406 33.863281 -66.554688 33.28125 -58.671875 Z M 61.953125 -58.671875 "/></g></g><g style="fill:#fab701;fill-opacity:1;"><g transform="translate(1097.910711, 378.34995)"><path style="stroke:none" d="M 43.5625 -100.484375 C 50.570312 -100.484375 56.8125 -99.828125 62.28125 -98.515625 C 67.757812 -97.203125 72.539062 -95.378906 76.625 -93.046875 C 77.9375 -92.460938 78.59375 -91.441406 78.59375 -89.984375 C 78.59375 -88.367188 77.644531 -85.664062 75.75 -81.875 C 74.289062 -79.101562 73.085938 -77.132812 72.140625 -75.96875 C 71.191406 -74.800781 70.273438 -74.21875 69.390625 -74.21875 C 68.804688 -74.21875 68.148438 -74.4375 67.421875 -74.875 C 64.359375 -76.476562 61.003906 -77.71875 57.359375 -78.59375 C 53.710938 -79.46875 49.914062 -79.90625 45.96875 -79.90625 C 41.445312 -79.90625 38.164062 -79.03125 36.125 -77.28125 C 34.082031 -75.53125 33.0625 -73.195312 33.0625 -70.28125 C 33.0625 -64.726562 36.125 -61.296875 42.25 -59.984375 L 56.703125 -57.796875 C 65.304688 -56.335938 71.578125 -53.195312 75.515625 -48.375 C 79.460938 -43.5625 81.4375 -37.285156 81.4375 -29.546875 C 81.4375 -20.648438 78.695312 -13.171875 73.21875 -7.109375 C 67.75 -1.054688 58.8125 1.96875 46.40625 1.96875 C 36.925781 1.96875 29.191406 1.238281 23.203125 -0.21875 C 17.222656 -1.675781 11.382812 -3.863281 5.6875 -6.78125 C 4.226562 -7.507812 3.5 -8.609375 3.5 -10.078125 C 3.5 -11.535156 4.445312 -14.160156 6.34375 -17.953125 C 7.800781 -20.867188 9.039062 -22.875 10.0625 -23.96875 C 11.09375 -25.0625 12.046875 -25.609375 12.921875 -25.609375 C 13.648438 -25.609375 14.304688 -25.390625 14.890625 -24.953125 C 18.972656 -22.910156 22.984375 -21.34375 26.921875 -20.25 C 30.867188 -19.15625 35.539062 -18.609375 40.9375 -18.609375 C 46.039062 -18.609375 49.578125 -19.554688 51.546875 -21.453125 C 53.523438 -23.347656 54.515625 -25.679688 54.515625 -28.453125 C 54.515625 -30.941406 53.820312 -33.0625 52.4375 -34.8125 C 51.050781 -36.5625 48.675781 -37.726562 45.3125 -38.3125 L 31.53125 -40.5 C 22.625 -41.957031 16.160156 -45.128906 12.140625 -50.015625 C 8.128906 -54.910156 6.125 -61.367188 6.125 -69.390625 C 6.125 -78.441406 9.003906 -85.882812 14.765625 -91.71875 C 20.535156 -97.5625 30.132812 -100.484375 43.5625 -100.484375 Z M 43.5625 -100.484375 "/></g></g><g style="fill:#ffffff;fill-opacity:1;"><g transform="translate(1.437501, 381.078799)"><path style="stroke:none" d="M 45.53125 -100.484375 C 58.375 -100.484375 67.492188 -96.25 72.890625 -87.78125 C 78.296875 -79.320312 81 -66.773438 81 -50.140625 C 81 -45.316406 78.664062 -42.90625 74 -42.90625 L 23.859375 -42.90625 C 24.585938 -31.375 27.175781 -23.09375 31.625 -18.0625 C 36.082031 -13.03125 42.472656 -10.515625 50.796875 -10.515625 C 55.023438 -10.515625 58.632812 -11.171875 61.625 -12.484375 C 64.613281 -13.796875 67.425781 -15.398438 70.0625 -17.296875 C 70.5 -17.734375 71.007812 -17.953125 71.59375 -17.953125 C 72.90625 -17.953125 74.363281 -16.640625 75.96875 -14.015625 C 77.28125 -11.828125 77.9375 -10.363281 77.9375 -9.625 C 77.9375 -8.894531 77.425781 -8.019531 76.40625 -7 C 72.90625 -4.226562 69.109375 -2.039062 65.015625 -0.4375 C 60.929688 1.164062 55.457031 1.96875 48.59375 1.96875 C 21.738281 1.96875 8.3125 -15.101562 8.3125 -49.25 C 8.3125 -66.625 11.335938 -79.503906 17.390625 -87.890625 C 23.453125 -96.285156 32.832031 -100.484375 45.53125 -100.484375 Z M 66.984375 -55.171875 C 66.546875 -67.140625 64.757812 -75.601562 61.625 -80.5625 C 58.488281 -85.519531 53.269531 -88 45.96875 -88 C 38.675781 -88 33.273438 -85.445312 29.765625 -80.34375 C 26.265625 -75.238281 24.296875 -66.847656 23.859375 -55.171875 Z M 66.984375 -55.171875 "/></g></g><g style="fill:#ffffff;fill-opacity:1;"><g transform="translate(90.318918, 381.078799)"><path style="stroke:none" d="M 9.40625 -100.484375 C 12.476562 -100.484375 14.5625 -100.15625 15.65625 -99.5 C 16.75 -98.84375 17.441406 -97.710938 17.734375 -96.109375 L 40.71875 -10.953125 L 63.921875 -96.109375 C 64.210938 -97.710938 64.90625 -98.84375 66 -99.5 C 67.09375 -100.15625 69.175781 -100.484375 72.25 -100.484375 C 75.164062 -100.484375 77.132812 -100.191406 78.15625 -99.609375 C 79.175781 -99.023438 79.6875 -98.222656 79.6875 -97.203125 C 79.6875 -97.054688 79.648438 -96.945312 79.578125 -96.875 C 79.503906 -96.800781 79.46875 -96.617188 79.46875 -96.328125 L 52.765625 -2.84375 C 52.328125 -0.945312 51.265625 0.328125 49.578125 0.984375 C 47.898438 1.640625 44.945312 1.96875 40.71875 1.96875 C 36.632812 1.96875 33.75 1.640625 32.0625 0.984375 C 30.382812 0.328125 29.328125 -0.945312 28.890625 -2.84375 L 2.1875 -96.328125 C 2.1875 -96.617188 2.148438 -96.800781 2.078125 -96.875 C 2.003906 -96.945312 1.96875 -97.054688 1.96875 -97.203125 C 1.96875 -98.222656 2.515625 -99.023438 3.609375 -99.609375 C 4.703125 -100.191406 6.632812 -100.484375 9.40625 -100.484375 Z M 9.40625 -100.484375 "/></g></g><g style="fill:#ffffff;fill-opacity:1;"><g transform="translate(171.757019, 381.078799)"><path style="stroke:none" d="M 17.953125 -148.421875 C 22.035156 -148.421875 24.660156 -148.128906 25.828125 -147.546875 C 26.992188 -146.960938 27.578125 -145.941406 27.578125 -144.484375 L 27.578125 -134.203125 C 27.578125 -132.742188 26.992188 -131.722656 25.828125 -131.140625 C 24.660156 -130.554688 22.035156 -130.265625 17.953125 -130.265625 C 13.867188 -130.265625 11.273438 -130.554688 10.171875 -131.140625 C 9.078125 -131.722656 8.53125 -132.742188 8.53125 -134.203125 L 8.53125 -144.484375 C 8.53125 -145.941406 9.078125 -146.960938 10.171875 -147.546875 C 11.273438 -148.128906 13.867188 -148.421875 17.953125 -148.421875 Z M 17.953125 -100.484375 C 21.304688 -100.484375 23.421875 -100.191406 24.296875 -99.609375 C 25.171875 -99.023438 25.609375 -98.078125 25.609375 -96.765625 L 25.609375 -1.75 C 25.609375 -0.4375 25.171875 0.507812 24.296875 1.09375 C 23.421875 1.675781 21.304688 1.96875 17.953125 1.96875 C 14.742188 1.96875 12.664062 1.675781 11.71875 1.09375 C 10.769531 0.507812 10.296875 -0.4375 10.296875 -1.75 L 10.296875 -96.765625 C 10.296875 -98.078125 10.769531 -99.023438 11.71875 -99.609375 C 12.664062 -100.191406 14.742188 -100.484375 17.953125 -100.484375 Z M 17.953125 -100.484375 "/></g></g><g style="fill:#ffffff;fill-opacity:1;"><g transform="translate(207.440901, 381.078799)"><path style="stroke:none" d="M 8.3125 -49.25 C 8.3125 -67.9375 11.664062 -81.144531 18.375 -88.875 C 25.09375 -96.613281 34.21875 -100.484375 45.75 -100.484375 C 50.425781 -100.484375 54.515625 -99.972656 58.015625 -98.953125 C 61.515625 -97.929688 64.578125 -96.691406 67.203125 -95.234375 L 67.203125 -146.015625 C 67.203125 -147.328125 67.675781 -148.273438 68.625 -148.859375 C 69.582031 -149.453125 71.664062 -149.75 74.875 -149.75 C 78.226562 -149.75 80.34375 -149.453125 81.21875 -148.859375 C 82.09375 -148.273438 82.53125 -147.328125 82.53125 -146.015625 L 82.53125 -12.921875 C 82.53125 -11.171875 81.875 -9.707031 80.5625 -8.53125 C 79.539062 -7.65625 77.71875 -6.378906 75.09375 -4.703125 C 72.46875 -3.023438 69 -1.492188 64.6875 -0.109375 C 60.382812 1.273438 55.09375 1.96875 48.8125 1.96875 C 40.9375 1.96875 33.96875 0.289062 27.90625 -3.0625 C 21.851562 -6.414062 17.070312 -11.851562 13.5625 -19.375 C 10.0625 -26.894531 8.3125 -36.851562 8.3125 -49.25 Z M 67.203125 -15.984375 L 67.203125 -80.5625 C 65.160156 -82.3125 62.535156 -83.953125 59.328125 -85.484375 C 56.117188 -87.015625 52.320312 -87.78125 47.9375 -87.78125 C 40.351562 -87.78125 34.40625 -85.007812 30.09375 -79.46875 C 25.789062 -73.925781 23.640625 -63.851562 23.640625 -49.25 C 23.640625 -34.65625 25.863281 -24.585938 30.3125 -19.046875 C 34.769531 -13.503906 40.863281 -10.734375 48.59375 -10.734375 C 52.6875 -10.734375 56.300781 -11.28125 59.4375 -12.375 C 62.570312 -13.46875 65.160156 -14.671875 67.203125 -15.984375 Z M 67.203125 -15.984375 "/></g></g><g style="fill:#ffffff;fill-opacity:1;"><g transform="translate(302.014195, 381.078799)"><path style="stroke:none" d="M 45.53125 -100.484375 C 58.375 -100.484375 67.492188 -96.25 72.890625 -87.78125 C 78.296875 -79.320312 81 -66.773438 81 -50.140625 C 81 -45.316406 78.664062 -42.90625 74 -42.90625 L 23.859375 -42.90625 C 24.585938 -31.375 27.175781 -23.09375 31.625 -18.0625 C 36.082031 -13.03125 42.472656 -10.515625 50.796875 -10.515625 C 55.023438 -10.515625 58.632812 -11.171875 61.625 -12.484375 C 64.613281 -13.796875 67.425781 -15.398438 70.0625 -17.296875 C 70.5 -17.734375 71.007812 -17.953125 71.59375 -17.953125 C 72.90625 -17.953125 74.363281 -16.640625 75.96875 -14.015625 C 77.28125 -11.828125 77.9375 -10.363281 77.9375 -9.625 C 77.9375 -8.894531 77.425781 -8.019531 76.40625 -7 C 72.90625 -4.226562 69.109375 -2.039062 65.015625 -0.4375 C 60.929688 1.164062 55.457031 1.96875 48.59375 1.96875 C 21.738281 1.96875 8.3125 -15.101562 8.3125 -49.25 C 8.3125 -66.625 11.335938 -79.503906 17.390625 -87.890625 C 23.453125 -96.285156 32.832031 -100.484375 45.53125 -100.484375 Z M 66.984375 -55.171875 C 66.546875 -67.140625 64.757812 -75.601562 61.625 -80.5625 C 58.488281 -85.519531 53.269531 -88 45.96875 -88 C 38.675781 -88 33.273438 -85.445312 29.765625 -80.34375 C 26.265625 -75.238281 24.296875 -66.847656 23.859375 -55.171875 Z M 66.984375 -55.171875 "/></g></g><g style="fill:#ffffff;fill-opacity:1;"><g transform="translate(390.89559, 381.078799)"><path style="stroke:none" d="M 12.046875 -1.75 L 12.046875 -84.5 C 12.046875 -86.539062 12.847656 -88.144531 14.453125 -89.3125 C 15.765625 -90.34375 17.804688 -91.734375 20.578125 -93.484375 C 23.347656 -95.234375 26.957031 -96.835938 31.40625 -98.296875 C 35.863281 -99.753906 41.15625 -100.484375 47.28125 -100.484375 C 71.070312 -100.484375 82.96875 -90.707031 82.96875 -71.15625 L 82.96875 -1.75 C 82.96875 -0.4375 82.53125 0.507812 81.65625 1.09375 C 80.78125 1.675781 78.664062 1.96875 75.3125 1.96875 C 72.101562 1.96875 70.019531 1.675781 69.0625 1.09375 C 68.113281 0.507812 67.640625 -0.4375 67.640625 -1.75 L 67.640625 -70.0625 C 67.640625 -76.039062 65.960938 -80.488281 62.609375 -83.40625 C 59.253906 -86.320312 53.925781 -87.78125 46.625 -87.78125 C 42.539062 -87.78125 38.894531 -87.195312 35.6875 -86.03125 C 32.476562 -84.863281 29.773438 -83.625 27.578125 -82.3125 L 27.578125 -1.75 C 27.578125 -0.4375 27.101562 0.507812 26.15625 1.09375 C 25.207031 1.675781 23.054688 1.96875 19.703125 1.96875 C 16.492188 1.96875 14.414062 1.675781 13.46875 1.09375 C 12.519531 0.507812 12.046875 -0.4375 12.046875 -1.75 Z M 12.046875 -1.75 "/></g></g><g style="fill:#ffffff;fill-opacity:1;"><g transform="translate(485.906746, 381.078799)"><path style="stroke:none" d="M 23.640625 -130.046875 C 26.992188 -130.046875 29.144531 -129.75 30.09375 -129.15625 C 31.050781 -128.570312 31.53125 -127.625 31.53125 -126.3125 L 31.53125 -98.515625 L 50.796875 -98.515625 C 51.960938 -98.515625 52.800781 -98.113281 53.3125 -97.3125 C 53.820312 -96.507812 54.078125 -94.796875 54.078125 -92.171875 C 54.078125 -89.535156 53.820312 -87.816406 53.3125 -87.015625 C 52.800781 -86.210938 51.960938 -85.8125 50.796875 -85.8125 L 31.53125 -85.8125 L 31.53125 -26.265625 C 31.53125 -20.722656 32.734375 -16.710938 35.140625 -14.234375 C 37.546875 -11.753906 41.007812 -10.515625 45.53125 -10.515625 C 48.457031 -10.515625 50.941406 -11.023438 52.984375 -12.046875 C 55.023438 -13.066406 56.992188 -14.304688 58.890625 -15.765625 C 59.472656 -16.054688 59.984375 -16.203125 60.421875 -16.203125 C 61.441406 -16.203125 62.679688 -14.890625 64.140625 -12.265625 C 65.160156 -10.359375 65.671875 -8.894531 65.671875 -7.875 C 65.671875 -7 65.015625 -5.976562 63.703125 -4.8125 C 61.367188 -2.625 58.597656 -0.945312 55.390625 0.21875 C 52.179688 1.382812 48.3125 1.96875 43.78125 1.96875 C 34.4375 1.96875 27.46875 -0.507812 22.875 -5.46875 C 18.28125 -10.4375 15.984375 -17.441406 15.984375 -26.484375 L 15.984375 -85.8125 L 5.25 -85.8125 C 4.226562 -85.8125 3.425781 -86.210938 2.84375 -87.015625 C 2.257812 -87.816406 1.96875 -89.535156 1.96875 -92.171875 C 1.96875 -94.796875 2.257812 -96.507812 2.84375 -97.3125 C 3.425781 -98.113281 4.226562 -98.515625 5.25 -98.515625 L 15.984375 -98.515625 L 15.984375 -126.3125 C 15.984375 -127.625 16.457031 -128.570312 17.40625 -129.15625 C 18.351562 -129.75 20.429688 -130.046875 23.640625 -130.046875 Z M 23.640625 -130.046875 "/></g></g><g style="fill:#ffffff;fill-opacity:1;"><g transform="translate(552.458315, 381.078799)"><path style="stroke:none" d="M 17.953125 -148.421875 C 22.035156 -148.421875 24.660156 -148.128906 25.828125 -147.546875 C 26.992188 -146.960938 27.578125 -145.941406 27.578125 -144.484375 L 27.578125 -134.203125 C 27.578125 -132.742188 26.992188 -131.722656 25.828125 -131.140625 C 24.660156 -130.554688 22.035156 -130.265625 17.953125 -130.265625 C 13.867188 -130.265625 11.273438 -130.554688 10.171875 -131.140625 C 9.078125 -131.722656 8.53125 -132.742188 8.53125 -134.203125 L 8.53125 -144.484375 C 8.53125 -145.941406 9.078125 -146.960938 10.171875 -147.546875 C 11.273438 -148.128906 13.867188 -148.421875 17.953125 -148.421875 Z M 17.953125 -100.484375 C 21.304688 -100.484375 23.421875 -100.191406 24.296875 -99.609375 C 25.171875 -99.023438 25.609375 -98.078125 25.609375 -96.765625 L 25.609375 -1.75 C 25.609375 -0.4375 25.171875 0.507812 24.296875 1.09375 C 23.421875 1.675781 21.304688 1.96875 17.953125 1.96875 C 14.742188 1.96875 12.664062 1.675781 11.71875 1.09375 C 10.769531 0.507812 10.296875 -0.4375 10.296875 -1.75 L 10.296875 -96.765625 C 10.296875 -98.078125 10.769531 -99.023438 11.71875 -99.609375 C 12.664062 -100.191406 14.742188 -100.484375 17.953125 -100.484375 Z M 17.953125 -100.484375 "/></g></g><g style="fill:#ffffff;fill-opacity:1;"><g transform="translate(588.142231, 381.078799)"><path style="stroke:none" d="M 45.3125 -100.484375 C 67.789062 -100.484375 79.03125 -91.070312 79.03125 -72.25 L 79.03125 -1.75 C 79.03125 -0.4375 78.703125 0.507812 78.046875 1.09375 C 77.390625 1.675781 75.894531 1.96875 73.5625 1.96875 C 69.46875 1.96875 67.128906 0.582031 66.546875 -2.1875 L 65.234375 -10.734375 C 62.609375 -7.515625 59.03125 -4.59375 54.5 -1.96875 C 49.976562 0.65625 44.070312 1.96875 36.78125 1.96875 C 27.875 1.96875 20.898438 -0.617188 15.859375 -5.796875 C 10.828125 -10.984375 8.3125 -18.535156 8.3125 -28.453125 C 8.3125 -38.085938 11.117188 -45.75 16.734375 -51.4375 C 22.359375 -57.132812 31.300781 -59.984375 43.5625 -59.984375 C 47.800781 -59.984375 51.597656 -59.65625 54.953125 -59 C 58.304688 -58.34375 61.222656 -57.578125 63.703125 -56.703125 L 63.703125 -70.9375 C 63.703125 -82.3125 56.769531 -88 42.90625 -88 C 38.820312 -88 35.0625 -87.34375 31.625 -86.03125 C 28.195312 -84.71875 24.953125 -82.894531 21.890625 -80.5625 C 21.304688 -80.125 20.722656 -79.90625 20.140625 -79.90625 C 18.828125 -79.90625 17.515625 -81.144531 16.203125 -83.625 C 15.035156 -85.519531 14.453125 -87.050781 14.453125 -88.21875 C 14.453125 -89.25 14.890625 -90.054688 15.765625 -90.640625 C 19.703125 -93.847656 23.96875 -96.289062 28.5625 -97.96875 C 33.164062 -99.644531 38.75 -100.484375 45.3125 -100.484375 Z M 63.703125 -21.671875 L 63.703125 -44.65625 C 61.515625 -45.53125 58.851562 -46.332031 55.71875 -47.0625 C 52.582031 -47.789062 48.894531 -48.15625 44.65625 -48.15625 C 37.507812 -48.15625 32.21875 -46.550781 28.78125 -43.34375 C 25.351562 -40.132812 23.640625 -35.535156 23.640625 -29.546875 C 23.640625 -22.984375 25.242188 -18.171875 28.453125 -15.109375 C 31.671875 -12.046875 36.125 -10.515625 41.8125 -10.515625 C 47.363281 -10.515625 51.925781 -11.753906 55.5 -14.234375 C 59.070312 -16.710938 61.804688 -19.191406 63.703125 -21.671875 Z M 63.703125 -21.671875 "/></g></g></g></svg>