<svg xmlns="http://www.w3.org/2000/svg" xmlns:xlink="http://www.w3.org/1999/xlink" width="500" zoomAndPan="magnify" viewBox="0 0 375 187.499995" height="250" preserveAspectRatio="xMidYMid meet" version="1.0"><defs><g/><clipPath id="id1"><path d="M 207 15 L 374 15 L 374 169 L 207 169 Z M 207 15 " clip-rule="nonzero"/></clipPath><clipPath id="id2"><path d="M 298.089844 -56.5 L 430.988281 67.503906 L 291.675781 216.808594 L 158.777344 92.804688 Z M 298.089844 -56.5 " clip-rule="nonzero"/></clipPath><clipPath id="id3"><path d="M 298.089844 -56.5 L 430.988281 67.503906 L 291.675781 216.808594 L 158.777344 92.804688 Z M 298.089844 -56.5 " clip-rule="nonzero"/></clipPath><clipPath id="id4"><path d="M 240.546875 161.382812 C 264.375 178.753906 336.644531 159.332031 353.320312 144.085938 C 394.75 106.226562 369.046875 9.742188 309.277344 15.363281 C 262.511719 19.78125 300.234375 63.472656 254.550781 63.109375 C 187.242188 62.589844 202.195312 133.4375 240.546875 161.382812 Z M 240.546875 161.382812 " clip-rule="nonzero"/></clipPath><linearGradient x1="-344.577145" gradientTransform="matrix(0.859423, -0.921065, -0.922146, -0.860431, 105.077386, -491.605987)" y1="-429.88199" x2="-145.073102" gradientUnits="userSpaceOnUse" y2="-429.88199" id="id5"><stop stop-opacity="1" stop-color="rgb(21.998596%, 71.398926%, 100%)" offset="0"/><stop stop-opacity="1" stop-color="rgb(21.998596%, 71.398926%, 100%)" offset="0.125"/><stop stop-opacity="1" stop-color="rgb(21.998596%, 71.398926%, 100%)" offset="0.1875"/><stop stop-opacity="1" stop-color="rgb(21.968079%, 71.287537%, 99.839783%)" offset="0.195313"/><stop stop-opacity="1" stop-color="rgb(21.826172%, 70.779419%, 99.116516%)" offset="0.199219"/><stop stop-opacity="1" stop-color="rgb(21.714783%, 70.384216%, 98.551941%)" offset="0.203125"/><stop stop-opacity="1" stop-color="rgb(21.603394%, 69.987488%, 97.98584%)" offset="0.207031"/><stop stop-opacity="1" stop-color="rgb(21.49353%, 69.592285%, 97.421265%)" offset="0.210938"/><stop stop-opacity="1" stop-color="rgb(21.382141%, 69.195557%, 96.856689%)" offset="0.214844"/><stop stop-opacity="1" stop-color="rgb(21.272278%, 68.798828%, 96.292114%)" offset="0.21875"/><stop stop-opacity="1" stop-color="rgb(21.160889%, 68.4021%, 95.726013%)" offset="0.222656"/><stop stop-opacity="1" stop-color="rgb(21.051025%, 68.006897%, 95.161438%)" offset="0.226563"/><stop stop-opacity="1" stop-color="rgb(20.939636%, 67.610168%, 94.596863%)" offset="0.230469"/><stop stop-opacity="1" stop-color="rgb(20.828247%, 67.214966%, 94.032288%)" offset="0.234375"/><stop stop-opacity="1" stop-color="rgb(20.716858%, 66.818237%, 93.466187%)" offset="0.238281"/><stop stop-opacity="1" stop-color="rgb(20.606995%, 66.423035%, 92.901611%)" offset="0.242188"/><stop stop-opacity="1" stop-color="rgb(20.495605%, 66.026306%, 92.337036%)" offset="0.246094"/><stop stop-opacity="1" stop-color="rgb(20.385742%, 65.631104%, 91.772461%)" offset="0.25"/><stop stop-opacity="1" stop-color="rgb(20.274353%, 65.234375%, 91.207886%)" offset="0.253906"/><stop stop-opacity="1" stop-color="rgb(20.16449%, 64.837646%, 90.643311%)" offset="0.257812"/><stop stop-opacity="1" stop-color="rgb(20.053101%, 64.440918%, 90.077209%)" offset="0.261719"/><stop stop-opacity="1" stop-color="rgb(19.941711%, 64.045715%, 89.512634%)" offset="0.265625"/><stop stop-opacity="1" stop-color="rgb(19.830322%, 63.648987%, 88.948059%)" offset="0.269531"/><stop stop-opacity="1" stop-color="rgb(19.720459%, 63.253784%, 88.383484%)" offset="0.273438"/><stop stop-opacity="1" stop-color="rgb(19.60907%, 62.857056%, 87.817383%)" offset="0.277344"/><stop stop-opacity="1" stop-color="rgb(19.499207%, 62.461853%, 87.252808%)" offset="0.28125"/><stop stop-opacity="1" stop-color="rgb(19.387817%, 62.065125%, 86.688232%)" offset="0.285156"/><stop stop-opacity="1" stop-color="rgb(19.277954%, 61.669922%, 86.123657%)" offset="0.289062"/><stop stop-opacity="1" stop-color="rgb(19.166565%, 61.273193%, 85.557556%)" offset="0.292969"/><stop stop-opacity="1" stop-color="rgb(19.056702%, 60.876465%, 84.992981%)" offset="0.296875"/><stop stop-opacity="1" stop-color="rgb(18.945312%, 60.479736%, 84.428406%)" offset="0.300781"/><stop stop-opacity="1" stop-color="rgb(18.833923%, 60.084534%, 83.863831%)" offset="0.304688"/><stop stop-opacity="1" stop-color="rgb(18.722534%, 59.687805%, 83.297729%)" offset="0.308594"/><stop stop-opacity="1" stop-color="rgb(18.612671%, 59.292603%, 82.733154%)" offset="0.3125"/><stop stop-opacity="1" stop-color="rgb(18.501282%, 58.895874%, 82.168579%)" offset="0.316406"/><stop stop-opacity="1" stop-color="rgb(18.391418%, 58.500671%, 81.604004%)" offset="0.320312"/><stop stop-opacity="1" stop-color="rgb(18.280029%, 58.103943%, 81.039429%)" offset="0.324219"/><stop stop-opacity="1" stop-color="rgb(18.170166%, 57.707214%, 80.474854%)" offset="0.328125"/><stop stop-opacity="1" stop-color="rgb(18.058777%, 57.310486%, 79.908752%)" offset="0.332031"/><stop stop-opacity="1" stop-color="rgb(17.947388%, 56.915283%, 79.344177%)" offset="0.335938"/><stop stop-opacity="1" stop-color="rgb(17.835999%, 56.518555%, 78.779602%)" offset="0.339844"/><stop stop-opacity="1" stop-color="rgb(17.726135%, 56.123352%, 78.215027%)" offset="0.34375"/><stop stop-opacity="1" stop-color="rgb(17.614746%, 55.726624%, 77.648926%)" offset="0.347656"/><stop stop-opacity="1" stop-color="rgb(17.504883%, 55.331421%, 77.084351%)" offset="0.351563"/><stop stop-opacity="1" stop-color="rgb(17.393494%, 54.934692%, 76.519775%)" offset="0.355469"/><stop stop-opacity="1" stop-color="rgb(17.28363%, 54.53949%, 75.9552%)" offset="0.359375"/><stop stop-opacity="1" stop-color="rgb(17.172241%, 54.142761%, 75.389099%)" offset="0.363281"/><stop stop-opacity="1" stop-color="rgb(17.060852%, 53.746033%, 74.824524%)" offset="0.367188"/><stop stop-opacity="1" stop-color="rgb(16.949463%, 53.349304%, 74.259949%)" offset="0.371094"/><stop stop-opacity="1" stop-color="rgb(16.8396%, 52.954102%, 73.695374%)" offset="0.375"/><stop stop-opacity="1" stop-color="rgb(16.72821%, 52.557373%, 73.129272%)" offset="0.378906"/><stop stop-opacity="1" stop-color="rgb(16.618347%, 52.16217%, 72.564697%)" offset="0.382813"/><stop stop-opacity="1" stop-color="rgb(16.506958%, 51.765442%, 72.000122%)" offset="0.386719"/><stop stop-opacity="1" stop-color="rgb(16.397095%, 51.370239%, 71.435547%)" offset="0.390625"/><stop stop-opacity="1" stop-color="rgb(16.285706%, 50.973511%, 70.869446%)" offset="0.394531"/><stop stop-opacity="1" stop-color="rgb(16.175842%, 50.576782%, 70.304871%)" offset="0.398438"/><stop stop-opacity="1" stop-color="rgb(16.064453%, 50.180054%, 69.740295%)" offset="0.402344"/><stop stop-opacity="1" stop-color="rgb(15.953064%, 49.784851%, 69.17572%)" offset="0.40625"/><stop stop-opacity="1" stop-color="rgb(15.841675%, 49.388123%, 68.611145%)" offset="0.410156"/><stop stop-opacity="1" stop-color="rgb(15.731812%, 48.99292%, 68.04657%)" offset="0.414063"/><stop stop-opacity="1" stop-color="rgb(15.620422%, 48.596191%, 67.480469%)" offset="0.417969"/><stop stop-opacity="1" stop-color="rgb(15.510559%, 48.200989%, 66.915894%)" offset="0.421875"/><stop stop-opacity="1" stop-color="rgb(15.39917%, 47.80426%, 66.351318%)" offset="0.425781"/><stop stop-opacity="1" stop-color="rgb(15.289307%, 47.409058%, 65.786743%)" offset="0.429688"/><stop stop-opacity="1" stop-color="rgb(15.177917%, 47.012329%, 65.220642%)" offset="0.433594"/><stop stop-opacity="1" stop-color="rgb(15.066528%, 46.615601%, 64.656067%)" offset="0.4375"/><stop stop-opacity="1" stop-color="rgb(14.955139%, 46.218872%, 64.091492%)" offset="0.441406"/><stop stop-opacity="1" stop-color="rgb(14.845276%, 45.823669%, 63.526917%)" offset="0.445313"/><stop stop-opacity="1" stop-color="rgb(14.733887%, 45.426941%, 62.960815%)" offset="0.449219"/><stop stop-opacity="1" stop-color="rgb(14.624023%, 45.031738%, 62.39624%)" offset="0.453125"/><stop stop-opacity="1" stop-color="rgb(14.512634%, 44.63501%, 61.831665%)" offset="0.457031"/><stop stop-opacity="1" stop-color="rgb(14.402771%, 44.239807%, 61.26709%)" offset="0.460938"/><stop stop-opacity="1" stop-color="rgb(14.291382%, 43.843079%, 60.700989%)" offset="0.464844"/><stop stop-opacity="1" stop-color="rgb(14.179993%, 43.44635%, 60.136414%)" offset="0.46875"/><stop stop-opacity="1" stop-color="rgb(14.068604%, 43.049622%, 59.571838%)" offset="0.472656"/><stop stop-opacity="1" stop-color="rgb(13.95874%, 42.654419%, 59.007263%)" offset="0.476563"/><stop stop-opacity="1" stop-color="rgb(13.847351%, 42.25769%, 58.442688%)" offset="0.480469"/><stop stop-opacity="1" stop-color="rgb(13.737488%, 41.862488%, 57.878113%)" offset="0.484375"/><stop stop-opacity="1" stop-color="rgb(13.626099%, 41.465759%, 57.312012%)" offset="0.488281"/><stop stop-opacity="1" stop-color="rgb(13.516235%, 41.070557%, 56.747437%)" offset="0.492188"/><stop stop-opacity="1" stop-color="rgb(13.404846%, 40.673828%, 56.182861%)" offset="0.496094"/><stop stop-opacity="1" stop-color="rgb(13.294983%, 40.278625%, 55.618286%)" offset="0.5"/><stop stop-opacity="1" stop-color="rgb(13.183594%, 39.881897%, 55.052185%)" offset="0.503906"/><stop stop-opacity="1" stop-color="rgb(13.072205%, 39.485168%, 54.48761%)" offset="0.507812"/><stop stop-opacity="1" stop-color="rgb(12.960815%, 39.08844%, 53.923035%)" offset="0.511719"/><stop stop-opacity="1" stop-color="rgb(12.850952%, 38.693237%, 53.358459%)" offset="0.515625"/><stop stop-opacity="1" stop-color="rgb(12.739563%, 38.296509%, 52.792358%)" offset="0.519531"/><stop stop-opacity="1" stop-color="rgb(12.6297%, 37.901306%, 52.227783%)" offset="0.523438"/><stop stop-opacity="1" stop-color="rgb(12.518311%, 37.504578%, 51.663208%)" offset="0.527344"/><stop stop-opacity="1" stop-color="rgb(12.408447%, 37.109375%, 51.098633%)" offset="0.53125"/><stop stop-opacity="1" stop-color="rgb(12.297058%, 36.712646%, 50.532532%)" offset="0.535156"/><stop stop-opacity="1" stop-color="rgb(12.185669%, 36.317444%, 49.967957%)" offset="0.539062"/><stop stop-opacity="1" stop-color="rgb(12.07428%, 35.920715%, 49.403381%)" offset="0.542969"/><stop stop-opacity="1" stop-color="rgb(11.964417%, 35.523987%, 48.838806%)" offset="0.546875"/><stop stop-opacity="1" stop-color="rgb(11.853027%, 35.127258%, 48.272705%)" offset="0.550781"/><stop stop-opacity="1" stop-color="rgb(11.743164%, 34.732056%, 47.70813%)" offset="0.554688"/><stop stop-opacity="1" stop-color="rgb(11.631775%, 34.335327%, 47.143555%)" offset="0.558594"/><stop stop-opacity="1" stop-color="rgb(11.521912%, 33.940125%, 46.578979%)" offset="0.5625"/><stop stop-opacity="1" stop-color="rgb(11.410522%, 33.543396%, 46.014404%)" offset="0.566406"/><stop stop-opacity="1" stop-color="rgb(11.299133%, 33.148193%, 45.449829%)" offset="0.570312"/><stop stop-opacity="1" stop-color="rgb(11.187744%, 32.751465%, 44.883728%)" offset="0.574219"/><stop stop-opacity="1" stop-color="rgb(11.077881%, 32.354736%, 44.319153%)" offset="0.578125"/><stop stop-opacity="1" stop-color="rgb(10.966492%, 31.958008%, 43.754578%)" offset="0.582031"/><stop stop-opacity="1" stop-color="rgb(10.856628%, 31.562805%, 43.190002%)" offset="0.585938"/><stop stop-opacity="1" stop-color="rgb(10.745239%, 31.166077%, 42.623901%)" offset="0.589844"/><stop stop-opacity="1" stop-color="rgb(10.635376%, 30.770874%, 42.059326%)" offset="0.59375"/><stop stop-opacity="1" stop-color="rgb(10.523987%, 30.374146%, 41.494751%)" offset="0.597656"/><stop stop-opacity="1" stop-color="rgb(10.414124%, 29.978943%, 40.930176%)" offset="0.601562"/><stop stop-opacity="1" stop-color="rgb(10.302734%, 29.582214%, 40.364075%)" offset="0.605469"/><stop stop-opacity="1" stop-color="rgb(10.191345%, 29.187012%, 39.7995%)" offset="0.609375"/><stop stop-opacity="1" stop-color="rgb(10.079956%, 28.790283%, 39.234924%)" offset="0.613281"/><stop stop-opacity="1" stop-color="rgb(9.970093%, 28.393555%, 38.670349%)" offset="0.617188"/><stop stop-opacity="1" stop-color="rgb(9.858704%, 27.996826%, 38.104248%)" offset="0.621094"/><stop stop-opacity="1" stop-color="rgb(9.74884%, 27.601624%, 37.539673%)" offset="0.625"/><stop stop-opacity="1" stop-color="rgb(9.637451%, 27.204895%, 36.975098%)" offset="0.628906"/><stop stop-opacity="1" stop-color="rgb(9.527588%, 26.809692%, 36.410522%)" offset="0.632812"/><stop stop-opacity="1" stop-color="rgb(9.416199%, 26.412964%, 35.845947%)" offset="0.636719"/><stop stop-opacity="1" stop-color="rgb(9.30481%, 26.017761%, 35.281372%)" offset="0.640625"/><stop stop-opacity="1" stop-color="rgb(9.19342%, 25.621033%, 34.715271%)" offset="0.644531"/><stop stop-opacity="1" stop-color="rgb(9.083557%, 25.224304%, 34.150696%)" offset="0.648438"/><stop stop-opacity="1" stop-color="rgb(8.972168%, 24.827576%, 33.586121%)" offset="0.652344"/><stop stop-opacity="1" stop-color="rgb(8.862305%, 24.432373%, 33.021545%)" offset="0.65625"/><stop stop-opacity="1" stop-color="rgb(8.750916%, 24.035645%, 32.455444%)" offset="0.660156"/><stop stop-opacity="1" stop-color="rgb(8.641052%, 23.640442%, 31.890869%)" offset="0.664062"/><stop stop-opacity="1" stop-color="rgb(8.529663%, 23.243713%, 31.326294%)" offset="0.667969"/><stop stop-opacity="1" stop-color="rgb(8.418274%, 22.848511%, 30.761719%)" offset="0.671875"/><stop stop-opacity="1" stop-color="rgb(8.306885%, 22.451782%, 30.195618%)" offset="0.675781"/><stop stop-opacity="1" stop-color="rgb(8.197021%, 22.05658%, 29.631042%)" offset="0.679688"/><stop stop-opacity="1" stop-color="rgb(8.085632%, 21.659851%, 29.066467%)" offset="0.683594"/><stop stop-opacity="1" stop-color="rgb(7.975769%, 21.263123%, 28.501892%)" offset="0.6875"/><stop stop-opacity="1" stop-color="rgb(7.86438%, 20.866394%, 27.935791%)" offset="0.691406"/><stop stop-opacity="1" stop-color="rgb(7.754517%, 20.471191%, 27.371216%)" offset="0.695313"/><stop stop-opacity="1" stop-color="rgb(7.643127%, 20.074463%, 26.806641%)" offset="0.699219"/><stop stop-opacity="1" stop-color="rgb(7.533264%, 19.67926%, 26.242065%)" offset="0.703125"/><stop stop-opacity="1" stop-color="rgb(7.421875%, 19.282532%, 25.675964%)" offset="0.707031"/><stop stop-opacity="1" stop-color="rgb(7.310486%, 18.887329%, 25.111389%)" offset="0.710938"/><stop stop-opacity="1" stop-color="rgb(7.199097%, 18.490601%, 24.546814%)" offset="0.714844"/><stop stop-opacity="1" stop-color="rgb(7.089233%, 18.093872%, 23.982239%)" offset="0.71875"/><stop stop-opacity="1" stop-color="rgb(6.977844%, 17.697144%, 23.417664%)" offset="0.722656"/><stop stop-opacity="1" stop-color="rgb(6.867981%, 17.301941%, 22.853088%)" offset="0.726563"/><stop stop-opacity="1" stop-color="rgb(6.756592%, 16.905212%, 22.286987%)" offset="0.730469"/><stop stop-opacity="1" stop-color="rgb(6.646729%, 16.51001%, 21.722412%)" offset="0.734375"/><stop stop-opacity="1" stop-color="rgb(6.535339%, 16.113281%, 21.157837%)" offset="0.738281"/><stop stop-opacity="1" stop-color="rgb(6.42395%, 15.718079%, 20.593262%)" offset="0.742188"/><stop stop-opacity="1" stop-color="rgb(6.312561%, 15.32135%, 20.027161%)" offset="0.746094"/><stop stop-opacity="1" stop-color="rgb(6.202698%, 14.926147%, 19.462585%)" offset="0.75"/><stop stop-opacity="1" stop-color="rgb(6.091309%, 14.529419%, 18.89801%)" offset="0.753906"/><stop stop-opacity="1" stop-color="rgb(5.981445%, 14.13269%, 18.333435%)" offset="0.757812"/><stop stop-opacity="1" stop-color="rgb(5.870056%, 13.735962%, 17.767334%)" offset="0.761719"/><stop stop-opacity="1" stop-color="rgb(5.760193%, 13.340759%, 17.202759%)" offset="0.765625"/><stop stop-opacity="1" stop-color="rgb(5.648804%, 12.944031%, 16.638184%)" offset="0.769531"/><stop stop-opacity="1" stop-color="rgb(5.537415%, 12.548828%, 16.073608%)" offset="0.773437"/><stop stop-opacity="1" stop-color="rgb(5.426025%, 12.1521%, 15.507507%)" offset="0.777344"/><stop stop-opacity="1" stop-color="rgb(5.316162%, 11.756897%, 14.942932%)" offset="0.78125"/><stop stop-opacity="1" stop-color="rgb(5.204773%, 11.360168%, 14.378357%)" offset="0.785156"/><stop stop-opacity="1" stop-color="rgb(5.09491%, 10.964966%, 13.813782%)" offset="0.789062"/><stop stop-opacity="1" stop-color="rgb(4.983521%, 10.568237%, 13.247681%)" offset="0.792969"/><stop stop-opacity="1" stop-color="rgb(4.873657%, 10.171509%, 12.683105%)" offset="0.796875"/><stop stop-opacity="1" stop-color="rgb(4.762268%, 9.77478%, 12.11853%)" offset="0.800781"/><stop stop-opacity="1" stop-color="rgb(4.652405%, 9.379578%, 11.553955%)" offset="0.804687"/><stop stop-opacity="1" stop-color="rgb(4.541016%, 8.982849%, 10.98938%)" offset="0.808594"/><stop stop-opacity="1" stop-color="rgb(4.429626%, 8.587646%, 10.424805%)" offset="0.8125"/><stop stop-opacity="1" stop-color="rgb(4.318237%, 8.190918%, 9.858704%)" offset="0.816406"/><stop stop-opacity="1" stop-color="rgb(4.208374%, 7.795715%, 9.294128%)" offset="0.820312"/><stop stop-opacity="1" stop-color="rgb(4.096985%, 7.398987%, 8.729553%)" offset="0.824219"/><stop stop-opacity="1" stop-color="rgb(3.987122%, 7.002258%, 8.164978%)" offset="0.828125"/><stop stop-opacity="1" stop-color="rgb(3.875732%, 6.60553%, 7.598877%)" offset="0.832031"/><stop stop-opacity="1" stop-color="rgb(3.765869%, 6.210327%, 7.034302%)" offset="0.835938"/><stop stop-opacity="1" stop-color="rgb(3.65448%, 5.813599%, 6.469727%)" offset="0.839844"/><stop stop-opacity="1" stop-color="rgb(3.543091%, 5.418396%, 5.905151%)" offset="0.84375"/><stop stop-opacity="1" stop-color="rgb(3.431702%, 5.021667%, 5.33905%)" offset="0.847656"/><stop stop-opacity="1" stop-color="rgb(3.321838%, 4.626465%, 4.774475%)" offset="0.851562"/><stop stop-opacity="1" stop-color="rgb(3.210449%, 4.229736%, 4.2099%)" offset="0.855469"/><stop stop-opacity="1" stop-color="rgb(3.100586%, 3.834534%, 3.645325%)" offset="0.859375"/><stop stop-opacity="1" stop-color="rgb(2.989197%, 3.437805%, 3.079224%)" offset="0.863281"/><stop stop-opacity="1" stop-color="rgb(2.879333%, 3.041077%, 2.514648%)" offset="0.867188"/><stop stop-opacity="1" stop-color="rgb(2.789307%, 2.719116%, 2.056885%)" offset="0.871094"/><stop stop-opacity="1" stop-color="rgb(2.69928%, 2.398682%, 1.599121%)" offset="0.875"/><stop stop-opacity="1" stop-color="rgb(2.69928%, 2.398682%, 1.599121%)" offset="1"/></linearGradient></defs><g clip-path="url(#id1)"><g clip-path="url(#id2)"><g clip-path="url(#id3)"><g clip-path="url(#id4)"><path fill="url(#id5)" d="M 287.347656 272.160156 L 102.9375 100.09375 L 274.394531 -83.664062 L 458.804688 88.40625 Z M 287.347656 272.160156 " fill-rule="nonzero"/></g></g></g></g><g fill="#ffffff" fill-opacity="1"><g transform="translate(190.348052, 124.111159)"><g/></g></g><g fill="#ffffff" fill-opacity="1"><g transform="translate(204.61156, 124.111159)"><g/></g></g><g fill="#ffffff" fill-opacity="1"><g transform="translate(218.865753, 124.111159)"><g><path d="M 1.914062 -1.121094 C 1.914062 0.0664062 2.640625 0.59375 6.207031 0.59375 C 9.773438 0.59375 10.433594 0.0664062 10.433594 -1.121094 L 10.433594 -6.011719 C 10.433594 -7.199219 9.773438 -7.726562 6.207031 -7.726562 C 2.640625 -7.726562 1.914062 -7.199219 1.914062 -6.011719 Z M 1.914062 -1.121094 "/></g></g></g><g fill="#ffffff" fill-opacity="1"><g transform="translate(231.148215, 124.111159)"><g><path d="M 15.191406 -30.3125 C 6.140625 -30.3125 1.914062 -25.292969 1.914062 -14.859375 C 1.914062 -4.425781 6.140625 0.59375 15.191406 0.59375 C 19.679688 0.59375 21.792969 -0.199219 24.171875 -1.519531 C 24.632812 -1.78125 24.832031 -2.113281 24.832031 -2.574219 C 24.832031 -3.105469 24.566406 -3.894531 24.039062 -4.953125 C 23.113281 -6.734375 22.519531 -7.398438 21.859375 -7.398438 C 21.660156 -7.398438 21.464844 -7.332031 21.265625 -7.199219 C 19.679688 -6.339844 18.160156 -5.8125 16.046875 -5.8125 C 12.085938 -5.8125 9.972656 -8.519531 9.972656 -14.859375 C 9.972656 -21.199219 12.085938 -23.90625 16.046875 -23.90625 C 18.160156 -23.90625 19.679688 -23.378906 21.265625 -22.519531 C 21.464844 -22.386719 21.660156 -22.320312 21.859375 -22.320312 C 22.519531 -22.320312 23.113281 -22.980469 24.039062 -24.765625 C 24.566406 -25.820312 24.832031 -26.613281 24.832031 -27.144531 C 24.832031 -27.605469 24.632812 -27.933594 24.171875 -28.199219 C 21.726562 -29.519531 19.679688 -30.3125 15.191406 -30.3125 Z M 15.191406 -30.3125 "/></g></g></g><g fill="#ffffff" fill-opacity="1"><g transform="translate(257.826263, 124.111159)"><g><path d="M 2.707031 -1.121094 C 2.707031 0.0664062 3.300781 0.59375 6.734375 0.59375 C 10.171875 0.59375 10.832031 0.0664062 10.832031 -1.121094 L 10.832031 -43.457031 C 10.832031 -44.644531 10.171875 -45.171875 6.734375 -45.171875 C 3.300781 -45.171875 2.707031 -44.644531 2.707031 -43.457031 Z M 2.707031 -1.121094 "/></g></g></g><g fill="#ffffff" fill-opacity="1"><g transform="translate(271.297354, 124.111159)"><g><path d="M 9.972656 -14.859375 C 9.972656 -21.859375 11.492188 -23.90625 14.792969 -23.90625 C 18.09375 -23.90625 19.546875 -21.859375 19.546875 -14.859375 C 19.546875 -7.859375 18.09375 -5.8125 14.792969 -5.8125 C 11.492188 -5.8125 9.972656 -7.859375 9.972656 -14.859375 Z M 1.914062 -14.859375 C 1.914062 -4.292969 5.945312 0.59375 14.792969 0.59375 C 23.644531 0.59375 27.671875 -4.292969 27.671875 -14.859375 C 27.671875 -25.425781 23.644531 -30.3125 14.792969 -30.3125 C 5.945312 -30.3125 1.914062 -25.425781 1.914062 -14.859375 Z M 1.914062 -14.859375 "/></g></g></g><g fill="#ffffff" fill-opacity="1"><g transform="translate(300.814891, 124.111159)"><g><path d="M 2.707031 -9.113281 C 2.707031 -2.246094 6.671875 0.59375 14.59375 0.59375 C 20.40625 0.59375 23.773438 -1.386719 25.226562 -2.507812 C 26.019531 -3.105469 26.417969 -4.027344 26.417969 -4.953125 L 26.417969 -28.597656 C 26.417969 -29.785156 25.757812 -30.3125 22.320312 -30.3125 C 18.886719 -30.3125 18.292969 -29.785156 18.292969 -28.597656 L 18.226562 -6.539062 C 17.304688 -6.140625 16.246094 -5.8125 15.058594 -5.8125 C 12.085938 -5.8125 10.832031 -7 10.832031 -9.707031 L 10.832031 -28.597656 C 10.832031 -29.785156 10.171875 -30.3125 6.734375 -30.3125 C 3.300781 -30.3125 2.707031 -29.785156 2.707031 -28.597656 Z M 2.707031 -9.113281 "/></g></g></g><g fill="#ffffff" fill-opacity="1"><g transform="translate(329.936226, 124.111159)"><g><path d="M 1.914062 -14.859375 C 1.914062 -3.234375 7.726562 0.59375 15.253906 0.59375 C 21.132812 0.59375 24.105469 -1.253906 25.492188 -2.378906 C 26.21875 -2.972656 26.613281 -3.765625 26.613281 -4.6875 L 26.613281 -43.457031 C 26.613281 -44.644531 26.019531 -45.171875 22.585938 -45.171875 C 19.152344 -45.171875 18.558594 -44.644531 18.558594 -43.457031 L 18.558594 -29.652344 C 17.171875 -30.050781 15.652344 -30.3125 13.800781 -30.3125 C 6.472656 -30.3125 1.914062 -26.285156 1.914062 -14.859375 Z M 18.558594 -6.539062 C 17.632812 -6.140625 16.445312 -5.8125 15.191406 -5.8125 C 11.820312 -5.8125 9.972656 -7.726562 9.972656 -14.859375 C 9.972656 -21.992188 11.820312 -23.90625 15.125 -23.90625 C 16.378906 -23.90625 17.566406 -23.511719 18.558594 -23.046875 Z M 18.558594 -6.539062 "/></g></g></g><g fill="#ffffff" fill-opacity="1"><g transform="translate(0.25072, 124.111159)"><g><path d="M 13.738281 -30.3125 C 6.074219 -30.3125 2.507812 -25.292969 2.507812 -14.859375 C 2.507812 -4.425781 6.472656 0.59375 14.660156 0.59375 C 18.753906 0.59375 20.933594 -0.460938 23.046875 -2.113281 C 23.3125 -2.378906 23.511719 -2.574219 23.511719 -2.90625 C 23.511719 -3.171875 23.3125 -3.566406 22.917969 -4.226562 C 22.386719 -5.085938 21.992188 -5.414062 21.59375 -5.414062 C 21.464844 -5.414062 21.265625 -5.347656 21.132812 -5.21875 C 19.546875 -4.09375 17.898438 -3.171875 15.320312 -3.171875 C 10.300781 -3.171875 7.660156 -5.945312 7.199219 -12.945312 L 22.320312 -12.945312 C 23.773438 -12.945312 24.433594 -13.738281 24.433594 -15.125 C 24.433594 -25.160156 21.464844 -30.3125 13.738281 -30.3125 Z M 20.207031 -16.640625 L 7.199219 -16.640625 C 7.460938 -23.644531 9.445312 -26.546875 13.867188 -26.546875 C 18.226562 -26.546875 19.945312 -23.839844 20.207031 -16.640625 Z M 20.207031 -16.640625 "/></g></g></g><g fill="#ffffff" fill-opacity="1"><g transform="translate(27.060835, 124.111159)"><g><path d="M 2.839844 -30.3125 C 1.121094 -30.3125 0.59375 -29.917969 0.59375 -29.324219 C 0.59375 -29.191406 0.660156 -29.191406 0.660156 -29.058594 L 8.71875 -0.859375 C 8.980469 0.265625 9.773438 0.59375 12.285156 0.59375 C 14.792969 0.59375 15.652344 0.265625 15.914062 -0.859375 L 23.972656 -29.058594 C 23.972656 -29.191406 24.039062 -29.191406 24.039062 -29.324219 C 24.039062 -29.917969 23.511719 -30.3125 21.792969 -30.3125 C 19.945312 -30.3125 19.480469 -29.917969 19.285156 -28.992188 L 12.285156 -3.300781 L 5.347656 -28.992188 C 5.152344 -29.917969 4.6875 -30.3125 2.839844 -30.3125 Z M 2.839844 -30.3125 "/></g></g></g><g fill="#ffffff" fill-opacity="1"><g transform="translate(51.62577, 124.111159)"><g><path d="M 5.414062 -44.777344 C 2.972656 -44.777344 2.574219 -44.445312 2.574219 -43.585938 L 2.574219 -40.484375 C 2.574219 -39.625 2.972656 -39.292969 5.414062 -39.292969 C 7.859375 -39.292969 8.320312 -39.625 8.320312 -40.484375 L 8.320312 -43.585938 C 8.320312 -44.445312 7.859375 -44.777344 5.414062 -44.777344 Z M 5.414062 -30.3125 C 3.433594 -30.3125 3.105469 -29.984375 3.105469 -29.191406 L 3.105469 -0.527344 C 3.105469 0.265625 3.433594 0.59375 5.414062 0.59375 C 7.398438 0.59375 7.726562 0.265625 7.726562 -0.527344 L 7.726562 -29.191406 C 7.726562 -29.984375 7.398438 -30.3125 5.414062 -30.3125 Z M 5.414062 -30.3125 "/></g></g></g><g fill="#ffffff" fill-opacity="1"><g transform="translate(62.38944, 124.111159)"><g><path d="M 2.507812 -14.859375 C 2.507812 -3.566406 7.59375 0.59375 14.726562 0.59375 C 20.40625 0.59375 23.3125 -1.71875 24.304688 -2.574219 C 24.699219 -2.90625 24.898438 -3.367188 24.898438 -3.894531 L 24.898438 -44.050781 C 24.898438 -44.84375 24.566406 -45.171875 22.585938 -45.171875 C 20.605469 -45.171875 20.273438 -44.84375 20.273438 -44.050781 L 20.273438 -28.726562 C 18.691406 -29.585938 16.578125 -30.3125 13.800781 -30.3125 C 6.867188 -30.3125 2.507812 -26.085938 2.507812 -14.859375 Z M 20.273438 -4.820312 C 19.019531 -4.027344 17.105469 -3.234375 14.660156 -3.234375 C 9.972656 -3.234375 7.132812 -6.074219 7.132812 -14.859375 C 7.132812 -23.644531 9.839844 -26.484375 14.464844 -26.484375 C 17.105469 -26.484375 19.019531 -25.359375 20.273438 -24.304688 Z M 20.273438 -4.820312 "/></g></g></g><g fill="#ffffff" fill-opacity="1"><g transform="translate(90.916466, 124.111159)"><g><path d="M 13.738281 -30.3125 C 6.074219 -30.3125 2.507812 -25.292969 2.507812 -14.859375 C 2.507812 -4.425781 6.472656 0.59375 14.660156 0.59375 C 18.753906 0.59375 20.933594 -0.460938 23.046875 -2.113281 C 23.3125 -2.378906 23.511719 -2.574219 23.511719 -2.90625 C 23.511719 -3.171875 23.3125 -3.566406 22.917969 -4.226562 C 22.386719 -5.085938 21.992188 -5.414062 21.59375 -5.414062 C 21.464844 -5.414062 21.265625 -5.347656 21.132812 -5.21875 C 19.546875 -4.09375 17.898438 -3.171875 15.320312 -3.171875 C 10.300781 -3.171875 7.660156 -5.945312 7.199219 -12.945312 L 22.320312 -12.945312 C 23.773438 -12.945312 24.433594 -13.738281 24.433594 -15.125 C 24.433594 -25.160156 21.464844 -30.3125 13.738281 -30.3125 Z M 20.207031 -16.640625 L 7.199219 -16.640625 C 7.460938 -23.644531 9.445312 -26.546875 13.867188 -26.546875 C 18.226562 -26.546875 19.945312 -23.839844 20.207031 -16.640625 Z M 20.207031 -16.640625 "/></g></g></g><g fill="#ffffff" fill-opacity="1"><g transform="translate(117.726581, 124.111159)"><g><path d="M 3.632812 -0.527344 C 3.632812 0.265625 3.960938 0.59375 5.945312 0.59375 C 7.925781 0.59375 8.320312 0.265625 8.320312 -0.527344 L 8.320312 -24.832031 C 9.640625 -25.625 11.625 -26.484375 14.066406 -26.484375 C 18.492188 -26.484375 20.40625 -24.765625 20.40625 -21.132812 L 20.40625 -0.527344 C 20.40625 0.265625 20.738281 0.59375 22.71875 0.59375 C 24.699219 0.59375 25.03125 0.265625 25.03125 -0.527344 L 25.03125 -21.464844 C 25.03125 -27.472656 21.464844 -30.3125 14.265625 -30.3125 C 8.652344 -30.3125 5.480469 -27.871094 4.359375 -26.945312 C 3.894531 -26.613281 3.632812 -26.019531 3.632812 -25.492188 Z M 3.632812 -0.527344 "/></g></g></g><g fill="#ffffff" fill-opacity="1"><g transform="translate(146.385674, 124.111159)"><g><path d="M 7.132812 -39.230469 C 5.152344 -39.230469 4.820312 -38.898438 4.820312 -38.105469 L 4.820312 -29.71875 L 1.585938 -29.71875 C 0.925781 -29.71875 0.59375 -29.386719 0.59375 -27.804688 C 0.59375 -26.21875 0.925781 -25.886719 1.585938 -25.886719 L 4.820312 -25.886719 L 4.820312 -7.992188 C 4.820312 -2.507812 7.527344 0.59375 13.207031 0.59375 C 15.914062 0.59375 17.765625 -0.132812 19.21875 -1.453125 C 19.613281 -1.78125 19.8125 -2.046875 19.8125 -2.378906 C 19.8125 -2.707031 19.679688 -3.105469 19.351562 -3.699219 C 18.886719 -4.558594 18.558594 -4.886719 18.226562 -4.886719 C 18.09375 -4.886719 17.898438 -4.820312 17.765625 -4.753906 C 16.578125 -3.832031 15.453125 -3.171875 13.738281 -3.171875 C 10.960938 -3.171875 9.511719 -4.558594 9.511719 -7.925781 L 9.511719 -25.886719 L 15.320312 -25.886719 C 15.980469 -25.886719 16.3125 -26.21875 16.3125 -27.804688 C 16.3125 -29.386719 15.980469 -29.71875 15.320312 -29.71875 L 9.511719 -29.71875 L 9.511719 -38.105469 C 9.511719 -38.898438 9.113281 -39.230469 7.132812 -39.230469 Z M 7.132812 -39.230469 "/></g></g></g><g fill="#ffffff" fill-opacity="1"><g transform="translate(166.46025, 124.111159)"><g><path d="M 5.414062 -44.777344 C 2.972656 -44.777344 2.574219 -44.445312 2.574219 -43.585938 L 2.574219 -40.484375 C 2.574219 -39.625 2.972656 -39.292969 5.414062 -39.292969 C 7.859375 -39.292969 8.320312 -39.625 8.320312 -40.484375 L 8.320312 -43.585938 C 8.320312 -44.445312 7.859375 -44.777344 5.414062 -44.777344 Z M 5.414062 -30.3125 C 3.433594 -30.3125 3.105469 -29.984375 3.105469 -29.191406 L 3.105469 -0.527344 C 3.105469 0.265625 3.433594 0.59375 5.414062 0.59375 C 7.398438 0.59375 7.726562 0.265625 7.726562 -0.527344 L 7.726562 -29.191406 C 7.726562 -29.984375 7.398438 -30.3125 5.414062 -30.3125 Z M 5.414062 -30.3125 "/></g></g></g><g fill="#ffffff" fill-opacity="1"><g transform="translate(177.22392, 124.111159)"><g><path d="M 13.671875 -30.3125 C 9.707031 -30.3125 7.132812 -29.257812 4.753906 -27.339844 C 4.492188 -27.144531 4.359375 -26.945312 4.359375 -26.613281 C 4.359375 -26.285156 4.492188 -25.886719 4.886719 -25.226562 C 5.347656 -24.371094 5.746094 -24.105469 6.074219 -24.105469 C 6.273438 -24.105469 6.40625 -24.171875 6.605469 -24.304688 C 8.453125 -25.691406 10.5 -26.546875 12.945312 -26.546875 C 17.105469 -26.546875 19.21875 -24.699219 19.21875 -21.398438 L 19.21875 -17.105469 C 17.699219 -17.632812 15.652344 -18.09375 13.140625 -18.09375 C 5.746094 -18.09375 2.507812 -14.398438 2.507812 -8.585938 C 2.507812 -2.574219 5.746094 0.59375 11.09375 0.59375 C 15.453125 0.59375 18.09375 -1.320312 19.679688 -3.234375 L 20.078125 -0.660156 C 20.273438 0.265625 20.933594 0.59375 22.191406 0.59375 C 23.578125 0.59375 23.839844 0.265625 23.839844 -0.527344 L 23.839844 -21.792969 C 23.839844 -27.472656 20.472656 -30.3125 13.671875 -30.3125 Z M 19.21875 -6.539062 C 18.03125 -5.019531 15.980469 -3.171875 12.613281 -3.171875 C 9.179688 -3.171875 7.132812 -4.953125 7.132812 -8.914062 C 7.132812 -12.480469 9.179688 -14.527344 13.472656 -14.527344 C 15.980469 -14.527344 17.898438 -14 19.21875 -13.472656 Z M 19.21875 -6.539062 "/></g></g></g><g fill="#ffffff" fill-opacity="1"><g transform="translate(78.052774, 144.064031)"><g><path d="M 0.859375 -9.152344 C 0.339844 -9.152344 0.179688 -9.035156 0.179688 -8.855469 C 0.179688 -8.8125 0.199219 -8.8125 0.199219 -8.773438 L 2.632812 -0.257812 C 2.710938 0.078125 2.953125 0.179688 3.710938 0.179688 C 4.46875 0.179688 4.726562 0.078125 4.804688 -0.257812 L 7.238281 -8.773438 C 7.238281 -8.8125 7.257812 -8.8125 7.257812 -8.855469 C 7.257812 -9.035156 7.097656 -9.152344 6.582031 -9.152344 C 6.023438 -9.152344 5.882812 -9.035156 5.824219 -8.753906 L 3.710938 -0.996094 L 1.617188 -8.753906 C 1.554688 -9.035156 1.414062 -9.152344 0.859375 -9.152344 Z M 0.859375 -9.152344 "/></g></g></g><g fill="#ffffff" fill-opacity="1"><g transform="translate(85.470063, 144.064031)"><g><path d="M 4.066406 -12.742188 C 2.710938 -12.742188 1.816406 -12.421875 1.058594 -11.824219 C 0.976562 -11.765625 0.917969 -11.707031 0.917969 -11.605469 C 0.917969 -11.507812 0.976562 -11.347656 1.117188 -11.109375 C 1.296875 -10.789062 1.414062 -10.667969 1.535156 -10.667969 C 1.59375 -10.667969 1.636719 -10.6875 1.695312 -10.730469 C 2.3125 -11.1875 2.992188 -11.464844 3.910156 -11.464844 C 5.464844 -11.464844 6.0625 -10.6875 6.0625 -9.171875 C 6.0625 -7.699219 5.265625 -6.917969 4.148438 -6.917969 L 3.070312 -6.917969 C 2.851562 -6.917969 2.753906 -6.800781 2.753906 -6.28125 C 2.753906 -5.761719 2.851562 -5.644531 3.070312 -5.644531 L 4.207031 -5.644531 C 5.445312 -5.644531 6.300781 -4.886719 6.300781 -3.429688 C 6.300781 -1.933594 5.664062 -1.097656 3.96875 -1.097656 C 3.03125 -1.097656 2.132812 -1.394531 1.535156 -1.816406 C 1.476562 -1.855469 1.414062 -1.894531 1.375 -1.894531 C 1.257812 -1.894531 1.136719 -1.773438 0.957031 -1.457031 C 0.816406 -1.214844 0.757812 -1.058594 0.757812 -0.957031 C 0.757812 -0.859375 0.816406 -0.796875 0.898438 -0.738281 C 1.65625 -0.140625 2.773438 0.179688 4.109375 0.179688 C 6.742188 0.179688 7.855469 -1.035156 7.855469 -3.289062 C 7.855469 -4.90625 7.058594 -5.882812 5.84375 -6.28125 C 6.898438 -6.699219 7.597656 -7.71875 7.597656 -9.273438 C 7.597656 -11.546875 6.539062 -12.742188 4.066406 -12.742188 Z M 4.066406 -12.742188 "/></g></g></g><g fill="#ffffff" fill-opacity="1"><g transform="translate(94.043806, 144.064031)"><g/></g></g><g fill="#ffffff" fill-opacity="1"><g transform="translate(98.342417, 144.064031)"><g><path d="M 6.160156 -9.152344 C 4.445312 -9.152344 3.390625 -8.457031 3.03125 -8.195312 C 2.890625 -8.097656 2.792969 -7.957031 2.753906 -7.796875 L 0.320312 3.648438 C 0.320312 3.6875 0.300781 3.730469 0.300781 3.75 C 0.300781 3.910156 0.4375 3.988281 0.9375 3.988281 C 1.535156 3.988281 1.695312 3.886719 1.734375 3.648438 L 2.574219 -0.300781 C 2.992188 -0.0390625 3.589844 0.179688 4.425781 0.179688 C 6.519531 0.179688 8.117188 -1.097656 8.835938 -4.488281 C 8.972656 -5.144531 9.035156 -5.722656 9.035156 -6.242188 C 9.035156 -8.335938 7.898438 -9.152344 6.160156 -9.152344 Z M 4.109375 -7.519531 C 4.546875 -7.757812 5.164062 -7.996094 5.902344 -7.996094 C 6.980469 -7.996094 7.617188 -7.5 7.617188 -6.101562 C 7.617188 -5.664062 7.558594 -5.125 7.417969 -4.488281 C 6.859375 -1.835938 5.863281 -0.976562 4.46875 -0.976562 C 3.667969 -0.976562 3.171875 -1.296875 2.851562 -1.636719 Z M 4.109375 -7.519531 "/></g></g></g><g fill="#ffffff" fill-opacity="1"><g transform="translate(106.956039, 144.064031)"><g><path d="M 4.6875 -13.640625 C 4.089844 -13.640625 3.96875 -13.539062 3.929688 -13.300781 L 1.136719 -0.160156 C 1.117188 -0.121094 1.117188 -0.078125 1.117188 -0.0585938 C 1.117188 0.101562 1.257812 0.179688 1.753906 0.179688 C 2.351562 0.179688 2.492188 0.078125 2.550781 -0.160156 L 4.128906 -7.597656 C 4.585938 -7.796875 5.246094 -7.996094 6.003906 -7.996094 C 7.039062 -7.996094 7.578125 -7.617188 7.578125 -6.839844 C 7.578125 -6.699219 7.558594 -6.539062 7.519531 -6.382812 L 6.203125 -0.160156 C 6.183594 -0.121094 6.183594 -0.078125 6.183594 -0.0585938 C 6.183594 0.101562 6.320312 0.179688 6.820312 0.179688 C 7.417969 0.179688 7.539062 0.078125 7.597656 -0.160156 L 8.953125 -6.601562 C 9.015625 -6.839844 9.035156 -7.058594 9.035156 -7.257812 C 9.035156 -8.476562 8.136719 -9.152344 6.421875 -9.152344 C 5.625 -9.152344 4.925781 -8.992188 4.386719 -8.8125 L 5.34375 -13.300781 C 5.34375 -13.339844 5.34375 -13.359375 5.34375 -13.402344 C 5.34375 -13.558594 5.203125 -13.640625 4.6875 -13.640625 Z M 4.6875 -13.640625 "/></g></g></g><g fill="#ffffff" fill-opacity="1"><g transform="translate(115.609541, 144.064031)"><g><path d="M 3.109375 -4.488281 C 3.667969 -7.097656 4.546875 -7.996094 5.984375 -7.996094 C 7.058594 -7.996094 7.617188 -7.519531 7.617188 -6.222656 C 7.617188 -5.742188 7.539062 -5.183594 7.398438 -4.488281 C 6.839844 -1.875 5.921875 -0.976562 4.488281 -0.976562 C 3.449219 -0.976562 2.890625 -1.457031 2.890625 -2.753906 C 2.890625 -3.210938 2.953125 -3.789062 3.109375 -4.488281 Z M 1.714844 -4.488281 C 1.554688 -3.769531 1.476562 -3.132812 1.476562 -2.59375 C 1.476562 -0.679688 2.414062 0.179688 4.265625 0.179688 C 6.660156 0.179688 8.097656 -1.257812 8.792969 -4.488281 C 8.953125 -5.226562 9.015625 -5.84375 9.015625 -6.402344 C 9.015625 -8.296875 8.117188 -9.152344 6.261719 -9.152344 C 3.867188 -9.152344 2.394531 -7.71875 1.714844 -4.488281 Z M 1.714844 -4.488281 "/></g></g></g><g fill="#ffffff" fill-opacity="1"><g transform="translate(124.183284, 144.064031)"><g><path d="M 6.101562 -9.152344 C 3.789062 -9.152344 2.375 -7.636719 1.714844 -4.488281 C 1.574219 -3.808594 1.496094 -3.210938 1.496094 -2.671875 C 1.496094 -0.757812 2.453125 0.179688 4.386719 0.179688 C 5.625 0.179688 6.339844 -0.140625 7.097656 -0.636719 C 7.21875 -0.71875 7.277344 -0.796875 7.277344 -0.9375 C 7.277344 -1.015625 7.257812 -1.136719 7.199219 -1.277344 C 7.097656 -1.535156 6.980469 -1.636719 6.878906 -1.636719 C 6.820312 -1.636719 6.761719 -1.617188 6.71875 -1.574219 C 6.160156 -1.238281 5.605469 -0.957031 4.824219 -0.957031 C 3.570312 -0.957031 2.929688 -1.535156 2.929688 -2.953125 C 2.929688 -3.230469 2.953125 -3.550781 3.011719 -3.910156 L 7.578125 -3.910156 C 8.015625 -3.910156 8.257812 -4.148438 8.355469 -4.566406 C 8.515625 -5.324219 8.59375 -6.003906 8.59375 -6.582031 C 8.59375 -8.277344 7.835938 -9.152344 6.101562 -9.152344 Z M 7.179688 -5.023438 L 3.25 -5.023438 C 3.769531 -7.140625 4.546875 -8.015625 5.882812 -8.015625 C 6.878906 -8.015625 7.320312 -7.558594 7.320312 -6.421875 C 7.320312 -6.042969 7.257812 -5.5625 7.179688 -5.023438 Z M 7.179688 -5.023438 "/></g></g></g><g fill="#ffffff" fill-opacity="1"><g transform="translate(132.278499, 144.064031)"><g><path d="M 1.136719 -0.160156 C 1.117188 -0.121094 1.117188 -0.078125 1.117188 -0.0585938 C 1.117188 0.101562 1.257812 0.179688 1.753906 0.179688 C 2.351562 0.179688 2.492188 0.078125 2.550781 -0.160156 L 4.109375 -7.5 C 4.546875 -7.738281 5.203125 -7.996094 5.941406 -7.996094 C 7.058594 -7.996094 7.578125 -7.636719 7.578125 -6.878906 C 7.578125 -6.71875 7.558594 -6.5625 7.519531 -6.382812 C 6.800781 -3.011719 6.203125 -0.160156 6.203125 -0.160156 C 6.183594 -0.121094 6.183594 -0.078125 6.183594 -0.0585938 C 6.183594 0.101562 6.320312 0.179688 6.820312 0.179688 C 7.417969 0.179688 7.539062 0.078125 7.597656 -0.160156 L 8.933594 -6.480469 C 8.992188 -6.761719 9.015625 -7 9.015625 -7.238281 C 9.015625 -8.535156 8.097656 -9.152344 6.261719 -9.152344 C 4.566406 -9.152344 3.449219 -8.414062 3.050781 -8.136719 C 2.890625 -8.035156 2.773438 -7.855469 2.730469 -7.699219 Z M 1.136719 -0.160156 "/></g></g></g><g fill="#ffffff" fill-opacity="1"><g transform="translate(140.932001, 144.064031)"><g><path d="M 4.507812 -13.519531 C 3.769531 -13.519531 3.628906 -13.421875 3.570312 -13.160156 L 3.371094 -12.222656 C 3.371094 -12.183594 3.371094 -12.144531 3.371094 -12.125 C 3.371094 -11.945312 3.53125 -11.867188 4.148438 -11.867188 C 4.886719 -11.867188 5.066406 -11.964844 5.105469 -12.222656 L 5.304688 -13.160156 C 5.324219 -13.203125 5.324219 -13.222656 5.324219 -13.261719 C 5.324219 -13.441406 5.144531 -13.519531 4.507812 -13.519531 Z M 3.589844 -9.152344 C 2.992188 -9.152344 2.871094 -9.054688 2.8125 -8.8125 L 0.976562 -0.160156 C 0.957031 -0.121094 0.957031 -0.078125 0.957031 -0.0585938 C 0.957031 0.101562 1.097656 0.179688 1.59375 0.179688 C 2.195312 0.179688 2.3125 0.078125 2.375 -0.160156 L 4.207031 -8.8125 C 4.207031 -8.855469 4.226562 -8.894531 4.226562 -8.914062 C 4.226562 -9.074219 4.089844 -9.152344 3.589844 -9.152344 Z M 3.589844 -9.152344 "/></g></g></g><g fill="#ffffff" fill-opacity="1"><g transform="translate(144.18205, 144.064031)"><g><path d="M 0.300781 -0.277344 C 0.238281 -0.199219 0.21875 -0.140625 0.21875 -0.0585938 C 0.21875 0.101562 0.398438 0.179688 0.878906 0.179688 C 1.394531 0.179688 1.59375 0.101562 1.734375 -0.179688 L 4.226562 -3.710938 L 5.203125 -0.179688 C 5.226562 0.101562 5.363281 0.179688 5.863281 0.179688 C 6.402344 0.179688 6.621094 0.078125 6.660156 -0.121094 C 6.679688 -0.160156 6.679688 -0.21875 6.660156 -0.277344 L 5.34375 -4.488281 L 8.457031 -8.695312 C 8.496094 -8.753906 8.515625 -8.8125 8.515625 -8.855469 C 8.535156 -8.875 8.535156 -8.894531 8.535156 -8.894531 C 8.535156 -9.054688 8.355469 -9.152344 7.878906 -9.152344 C 7.339844 -9.152344 7.179688 -9.074219 7.039062 -8.792969 L 4.546875 -5.265625 L 3.550781 -8.792969 C 3.53125 -9.074219 3.390625 -9.152344 2.871094 -9.152344 C 2.332031 -9.152344 2.113281 -9.035156 2.074219 -8.855469 C 2.074219 -8.8125 2.054688 -8.753906 2.09375 -8.695312 L 3.410156 -4.488281 Z M 0.300781 -0.277344 "/></g></g></g><g fill="#ffffff" fill-opacity="1"><g transform="translate(151.021112, 144.064031)"><g/></g></g><g fill="#ffffff" fill-opacity="1"><g transform="translate(155.327929, 144.064031)"><g><path d="M 6.101562 -9.152344 C 3.789062 -9.152344 2.375 -7.636719 1.714844 -4.488281 C 1.574219 -3.808594 1.496094 -3.210938 1.496094 -2.671875 C 1.496094 -0.757812 2.453125 0.179688 4.386719 0.179688 C 5.625 0.179688 6.339844 -0.140625 7.097656 -0.636719 C 7.21875 -0.71875 7.277344 -0.796875 7.277344 -0.9375 C 7.277344 -1.015625 7.257812 -1.136719 7.199219 -1.277344 C 7.097656 -1.535156 6.980469 -1.636719 6.878906 -1.636719 C 6.820312 -1.636719 6.761719 -1.617188 6.71875 -1.574219 C 6.160156 -1.238281 5.605469 -0.957031 4.824219 -0.957031 C 3.570312 -0.957031 2.929688 -1.535156 2.929688 -2.953125 C 2.929688 -3.230469 2.953125 -3.550781 3.011719 -3.910156 L 7.578125 -3.910156 C 8.015625 -3.910156 8.257812 -4.148438 8.355469 -4.566406 C 8.515625 -5.324219 8.59375 -6.003906 8.59375 -6.582031 C 8.59375 -8.277344 7.835938 -9.152344 6.101562 -9.152344 Z M 7.179688 -5.023438 L 3.25 -5.023438 C 3.769531 -7.140625 4.546875 -8.015625 5.882812 -8.015625 C 6.878906 -8.015625 7.320312 -7.558594 7.320312 -6.421875 C 7.320312 -6.042969 7.257812 -5.5625 7.179688 -5.023438 Z M 7.179688 -5.023438 "/></g></g></g><g fill="#ffffff" fill-opacity="1"><g transform="translate(163.423144, 144.064031)"><g><path d="M 1.714844 -4.488281 C 1.574219 -3.828125 1.515625 -3.25 1.515625 -2.753906 C 1.515625 -0.636719 2.671875 0.179688 4.40625 0.179688 C 6.121094 0.179688 7.160156 -0.519531 7.5 -0.777344 C 7.636719 -0.878906 7.738281 -1.015625 7.777344 -1.175781 L 10.351562 -13.300781 C 10.351562 -13.339844 10.351562 -13.382812 10.351562 -13.402344 C 10.351562 -13.558594 10.230469 -13.640625 9.710938 -13.640625 C 9.113281 -13.640625 8.992188 -13.539062 8.953125 -13.300781 L 7.957031 -8.675781 C 7.539062 -8.933594 6.960938 -9.152344 6.121094 -9.152344 C 4.027344 -9.152344 2.433594 -7.878906 1.714844 -4.488281 Z M 6.441406 -1.457031 C 6.003906 -1.214844 5.363281 -0.976562 4.625 -0.976562 C 3.550781 -0.976562 2.910156 -1.476562 2.910156 -2.871094 C 2.910156 -3.332031 2.972656 -3.847656 3.109375 -4.488281 C 3.667969 -7.140625 4.667969 -7.996094 6.0625 -7.996094 C 6.859375 -7.996094 7.378906 -7.65625 7.675781 -7.339844 Z M 6.441406 -1.457031 "/></g></g></g><g fill="#ffffff" fill-opacity="1"><g transform="translate(172.036766, 144.064031)"><g><path d="M 4.507812 -13.519531 C 3.769531 -13.519531 3.628906 -13.421875 3.570312 -13.160156 L 3.371094 -12.222656 C 3.371094 -12.183594 3.371094 -12.144531 3.371094 -12.125 C 3.371094 -11.945312 3.53125 -11.867188 4.148438 -11.867188 C 4.886719 -11.867188 5.066406 -11.964844 5.105469 -12.222656 L 5.304688 -13.160156 C 5.324219 -13.203125 5.324219 -13.222656 5.324219 -13.261719 C 5.324219 -13.441406 5.144531 -13.519531 4.507812 -13.519531 Z M 3.589844 -9.152344 C 2.992188 -9.152344 2.871094 -9.054688 2.8125 -8.8125 L 0.976562 -0.160156 C 0.957031 -0.121094 0.957031 -0.078125 0.957031 -0.0585938 C 0.957031 0.101562 1.097656 0.179688 1.59375 0.179688 C 2.195312 0.179688 2.3125 0.078125 2.375 -0.160156 L 4.207031 -8.8125 C 4.207031 -8.855469 4.226562 -8.894531 4.226562 -8.914062 C 4.226562 -9.074219 4.089844 -9.152344 3.589844 -9.152344 Z M 3.589844 -9.152344 "/></g></g></g><g fill="#ffffff" fill-opacity="1"><g transform="translate(175.286816, 144.064031)"><g><path d="M 4.667969 -11.84375 C 4.066406 -11.84375 3.949219 -11.746094 3.910156 -11.507812 L 3.371094 -8.972656 L 2.394531 -8.972656 C 2.195312 -8.972656 2.074219 -8.875 1.953125 -8.394531 C 1.933594 -8.257812 1.914062 -8.136719 1.914062 -8.054688 C 1.914062 -7.855469 1.996094 -7.816406 2.132812 -7.816406 L 3.109375 -7.816406 L 1.972656 -2.414062 C 1.914062 -2.113281 1.875 -1.835938 1.875 -1.59375 C 1.875 -0.457031 2.53125 0.179688 3.949219 0.179688 C 4.765625 0.179688 5.363281 -0.0390625 5.902344 -0.4375 C 6.0625 -0.558594 6.140625 -0.65625 6.140625 -0.796875 C 6.140625 -0.878906 6.121094 -0.976562 6.082031 -1.117188 C 6.003906 -1.375 5.921875 -1.476562 5.824219 -1.476562 C 5.761719 -1.476562 5.722656 -1.457031 5.664062 -1.4375 C 5.246094 -1.15625 4.867188 -0.957031 4.347656 -0.957031 C 3.667969 -0.957031 3.308594 -1.238281 3.308594 -1.875 C 3.308594 -2.015625 3.332031 -2.195312 3.390625 -2.394531 L 4.527344 -7.816406 L 6.28125 -7.816406 C 6.480469 -7.816406 6.601562 -7.917969 6.699219 -8.394531 C 6.742188 -8.535156 6.761719 -8.65625 6.761719 -8.734375 C 6.761719 -8.933594 6.679688 -8.972656 6.539062 -8.972656 L 4.785156 -8.972656 L 5.324219 -11.507812 C 5.324219 -11.546875 5.324219 -11.566406 5.324219 -11.605469 C 5.324219 -11.765625 5.183594 -11.84375 4.667969 -11.84375 Z M 4.667969 -11.84375 "/></g></g></g><g fill="#ffffff" fill-opacity="1"><g transform="translate(181.348254, 144.064031)"><g><path d="M 4.507812 -13.519531 C 3.769531 -13.519531 3.628906 -13.421875 3.570312 -13.160156 L 3.371094 -12.222656 C 3.371094 -12.183594 3.371094 -12.144531 3.371094 -12.125 C 3.371094 -11.945312 3.53125 -11.867188 4.148438 -11.867188 C 4.886719 -11.867188 5.066406 -11.964844 5.105469 -12.222656 L 5.304688 -13.160156 C 5.324219 -13.203125 5.324219 -13.222656 5.324219 -13.261719 C 5.324219 -13.441406 5.144531 -13.519531 4.507812 -13.519531 Z M 3.589844 -9.152344 C 2.992188 -9.152344 2.871094 -9.054688 2.8125 -8.8125 L 0.976562 -0.160156 C 0.957031 -0.121094 0.957031 -0.078125 0.957031 -0.0585938 C 0.957031 0.101562 1.097656 0.179688 1.59375 0.179688 C 2.195312 0.179688 2.3125 0.078125 2.375 -0.160156 L 4.207031 -8.8125 C 4.207031 -8.855469 4.226562 -8.894531 4.226562 -8.914062 C 4.226562 -9.074219 4.089844 -9.152344 3.589844 -9.152344 Z M 3.589844 -9.152344 "/></g></g></g><g fill="#ffffff" fill-opacity="1"><g transform="translate(184.598303, 144.064031)"><g><path d="M 3.109375 -4.488281 C 3.667969 -7.097656 4.546875 -7.996094 5.984375 -7.996094 C 7.058594 -7.996094 7.617188 -7.519531 7.617188 -6.222656 C 7.617188 -5.742188 7.539062 -5.183594 7.398438 -4.488281 C 6.839844 -1.875 5.921875 -0.976562 4.488281 -0.976562 C 3.449219 -0.976562 2.890625 -1.457031 2.890625 -2.753906 C 2.890625 -3.210938 2.953125 -3.789062 3.109375 -4.488281 Z M 1.714844 -4.488281 C 1.554688 -3.769531 1.476562 -3.132812 1.476562 -2.59375 C 1.476562 -0.679688 2.414062 0.179688 4.265625 0.179688 C 6.660156 0.179688 8.097656 -1.257812 8.792969 -4.488281 C 8.953125 -5.226562 9.015625 -5.84375 9.015625 -6.402344 C 9.015625 -8.296875 8.117188 -9.152344 6.261719 -9.152344 C 3.867188 -9.152344 2.394531 -7.71875 1.714844 -4.488281 Z M 1.714844 -4.488281 "/></g></g></g><g fill="#ffffff" fill-opacity="1"><g transform="translate(193.172047, 144.064031)"><g><path d="M 1.136719 -0.160156 C 1.117188 -0.121094 1.117188 -0.078125 1.117188 -0.0585938 C 1.117188 0.101562 1.257812 0.179688 1.753906 0.179688 C 2.351562 0.179688 2.492188 0.078125 2.550781 -0.160156 L 4.109375 -7.5 C 4.546875 -7.738281 5.203125 -7.996094 5.941406 -7.996094 C 7.058594 -7.996094 7.578125 -7.636719 7.578125 -6.878906 C 7.578125 -6.71875 7.558594 -6.5625 7.519531 -6.382812 C 6.800781 -3.011719 6.203125 -0.160156 6.203125 -0.160156 C 6.183594 -0.121094 6.183594 -0.078125 6.183594 -0.0585938 C 6.183594 0.101562 6.320312 0.179688 6.820312 0.179688 C 7.417969 0.179688 7.539062 0.078125 7.597656 -0.160156 L 8.933594 -6.480469 C 8.992188 -6.761719 9.015625 -7 9.015625 -7.238281 C 9.015625 -8.535156 8.097656 -9.152344 6.261719 -9.152344 C 4.566406 -9.152344 3.449219 -8.414062 3.050781 -8.136719 C 2.890625 -8.035156 2.773438 -7.855469 2.730469 -7.699219 Z M 1.136719 -0.160156 "/></g></g></g></svg>